<?xml version="1.0" standalone="no"?>
<!DOCTYPE svg PUBLIC "-//W3C//DTD SVG 20010904//EN"
 "http://www.w3.org/TR/2001/REC-SVG-20010904/DTD/svg10.dtd">
<svg version="1.0" xmlns="http://www.w3.org/2000/svg"
 width="600.000000pt" height="199.000000pt" viewBox="0 0 600.000000 199.000000"
 preserveAspectRatio="xMidYMid meet">

<g transform="translate(0.000000,199.000000) scale(0.100000,-0.100000)"
fill="#000000" stroke="none">
<path d="M622 1479 l3 -82 188 2 c103 1 187 -1 187 -5 0 -4 -86 -121 -190
-260 l-190 -253 0 -80 c0 -63 3 -80 16 -85 9 -3 153 -6 320 -6 l304 0 0 85 0
85 -210 0 c-116 0 -210 2 -210 5 0 3 89 123 198 267 108 144 203 273 210 286
18 32 7 87 -21 107 -18 13 -68 15 -315 15 l-293 0 3 -81z"/>
<path d="M2168 1233 c0 -181 0 -341 1 -358 8 -88 103 -165 206 -165 l45 0 0
84 0 85 -42 3 -43 3 -3 338 -2 337 -80 0 -80 0 -2 -327z"/>
<path d="M1546 1375 c-78 -30 -146 -94 -185 -175 -22 -48 -26 -68 -26 -150 0
-83 3 -102 28 -151 32 -67 99 -132 165 -162 71 -32 190 -30 257 5 28 15 58 33
68 40 16 12 22 10 51 -17 37 -35 94 -55 155 -55 l41 0 0 85 0 85 -45 0 -45 0
0 255 0 255 -85 0 -85 0 0 -29 0 -30 -47 27 c-58 32 -184 41 -247 17z m222
-184 c68 -48 89 -139 52 -215 -59 -121 -228 -126 -296 -10 -49 84 -18 194 68
238 46 24 134 17 176 -13z"/>
<path d="M2673 1370 c-72 -29 -145 -98 -182 -172 -27 -53 -31 -72 -31 -139 0
-144 63 -250 183 -309 88 -43 164 -49 258 -20 63 19 81 30 134 83 51 51 66 74
85 131 54 163 -21 342 -175 416 -70 34 -199 39 -272 10z m207 -169 c97 -51
118 -179 43 -261 -55 -61 -126 -75 -200 -39 -63 30 -93 79 -93 150 0 65 24
109 79 146 43 29 121 31 171 4z"/>
</g>
</svg>
