<?xml version="1.0" standalone="no"?>
<!DOCTYPE svg PUBLIC "-//W3C//DTD SVG 20010904//EN"
 "http://www.w3.org/TR/2001/REC-SVG-20010904/DTD/svg10.dtd">
<svg version="1.0" xmlns="http://www.w3.org/2000/svg"
 width="32px" height="32px" viewBox="0 0 1066.000000 1066.000000"
 preserveAspectRatio="xMidYMid meet"  >

<g transform="translate(0.000000,1066.000000) scale(0.100000,-0.100000)"
fill="#000" stroke="none">
<path d="M6257 8706 c-50 -18 -62 -30 -86 -80 -19 -37 -21 -61 -21 -209 l0
-167 120 0 120 0 0 120 0 120 130 0 130 0 0 -82 c0 -46 2 -105 5 -133 l5 -50
-115 -120 c-64 -66 -123 -133 -132 -150 -11 -19 -18 -63 -21 -122 l-4 -93 126
0 126 0 0 64 c0 74 6 83 135 212 121 119 120 118 120 374 0 198 -2 218 -20
250 -12 19 -36 43 -55 55 -32 18 -54 20 -280 22 -188 2 -254 0 -283 -11z"/>
<path d="M3261 7519 c-94 -18 -185 -99 -218 -193 -17 -48 -18 -159 -18 -2086
0 -1936 1 -2038 18 -2087 24 -69 85 -136 155 -170 l57 -28 670 0 c778 0 737
-5 837 95 91 92 88 63 88 772 l0 608 -200 0 -200 0 0 -560 0 -560 -515 0 -515
0 0 1930 0 1930 515 0 515 0 0 -515 0 -515 200 0 201 0 -3 583 -3 582 -23 45
c-47 90 -124 149 -220 169 -64 13 -1273 13 -1341 0z"/>
<path d="M5572 5358 l3 -2173 24 -52 c27 -61 93 -126 159 -156 47 -22 50 -22
757 -22 l710 0 56 26 c68 32 118 81 150 145 l24 49 3 2178 2 2177 -200 0 -200
0 0 -2110 0 -2110 -545 0 -545 0 0 2110 0 2110 -200 0 -200 0 2 -2172z"/>
<path d="M7580 4355 c0 -8 7 -15 15 -15 8 0 15 7 15 15 0 8 -7 15 -15 15 -8 0
-15 -7 -15 -15z"/>
<path d="M7580 4215 c0 -43 4 -75 10 -75 6 0 10 25 10 55 0 30 2 55 4 55 2 0
52 -23 111 -50 98 -46 113 -51 169 -48 l61 3 0 60 0 60 -52 3 c-32 2 -53 -1
-53 -7 0 -6 18 -11 40 -11 l40 0 0 -45 0 -45 -39 0 c-27 0 -78 18 -165 60 -70
33 -129 60 -131 60 -3 0 -5 -34 -5 -75z"/>
<path d="M7580 4075 c0 -12 17 -15 91 -15 l90 0 -3 -47 -3 -48 -88 0 c-63 0
-87 -3 -87 -12 0 -10 44 -13 186 -13 135 0 185 3 182 11 -3 8 -34 12 -83 13
l-80 2 -3 47 -3 47 85 0 c70 0 86 3 86 15 0 13 -27 15 -185 15 -158 0 -185 -2
-185 -15z"/>
<path d="M7580 3871 c0 -12 25 -21 56 -21 23 0 25 -3 22 -42 -3 -42 -4 -43
-40 -46 -25 -2 -38 -8 -38 -18 0 -19 -2 -19 195 16 94 16 171 30 173 30 1 0 2
7 2 15 0 8 -2 15 -5 15 -3 0 -80 14 -172 30 -182 33 -193 34 -193 21z m220
-52 c41 -6 71 -13 65 -15 -5 -2 -47 -10 -92 -17 l-83 -14 0 34 c0 28 3 33 18
29 9 -2 51 -10 92 -17z"/>
<path d="M7580 3665 c0 -13 20 -15 133 -15 87 0 127 -4 117 -10 -8 -5 -68 -28
-132 -52 -65 -23 -118 -46 -118 -50 0 -4 83 -8 185 -8 117 0 185 4 185 10 0 6
-49 10 -127 10 -89 0 -124 3 -117 10 6 6 62 30 124 53 61 23 112 47 111 52 -1
6 -70 11 -181 13 -157 3 -180 1 -180 -13z"/>
<path d="M7580 3402 c0 -89 6 -92 183 -92 142 0 146 1 164 24 12 15 20 43 22
75 l2 51 -186 0 -185 0 0 -58z m340 -5 c0 -53 -10 -57 -162 -57 -126 0 -138 2
-148 19 -5 11 -10 31 -10 45 l0 26 160 0 160 0 0 -33z"/>
<path d="M3410 2450 c0 -33 15 -41 22 -12 3 10 13 19 22 19 21 0 21 -40 1 -57
-16 -13 -21 -40 -7 -40 4 0 18 16 31 35 16 24 21 42 17 60 -5 21 -12 25 -46
25 -38 0 -40 -2 -40 -30z"/>
<path d="M6330 2403 c-38 -42 -26 -55 19 -22 l31 23 23 -22 c13 -12 32 -22 42
-22 15 0 11 8 -20 40 -21 22 -44 40 -51 40 -7 0 -27 -17 -44 -37z"/>
<path d="M7767 2423 c-14 -13 -7 -63 8 -63 8 0 15 7 15 15 0 18 -2 18 51 0 24
-9 49 -13 56 -11 19 8 17 66 -2 66 -8 0 -15 -7 -15 -15 0 -8 -4 -15 -9 -15 -5
0 -25 7 -44 15 -40 17 -51 18 -60 8z"/>
<path d="M3020 2311 c-15 -29 -14 -523 2 -539 16 -16 190 -16 206 0 7 7 12 43
12 90 0 77 0 78 -25 78 -24 0 -25 -2 -25 -70 l0 -70 -65 0 -65 0 0 245 0 245
65 0 65 0 0 -65 c0 -63 1 -65 25 -65 24 0 25 2 25 73 0 43 -5 78 -12 85 -8 8
-46 12 -105 12 -81 0 -94 -2 -103 -19z"/>
<path d="M3330 2057 c0 -199 3 -276 12 -285 8 -8 47 -12 108 -12 61 0 100 4
108 12 9 9 12 86 12 285 l0 273 -25 0 -25 0 0 -265 0 -265 -70 0 -70 0 0 265
0 265 -25 0 -25 0 0 -273z"/>
<path d="M3810 2046 c0 -279 0 -286 20 -286 19 0 20 7 20 200 0 110 4 200 8
200 4 0 32 -66 61 -147 30 -82 63 -172 73 -200 11 -30 26 -53 34 -53 12 0 14
45 14 285 0 277 -1 285 -20 285 -19 0 -20 -8 -22 -202 l-3 -203 -37 95 c-20
52 -54 142 -75 200 -26 72 -43 106 -55 108 -17 3 -18 -16 -18 -282z"/>
<path d="M4140 2046 l0 -286 26 0 25 0 -3 135 -3 135 73 0 72 0 0 -135 0 -135
25 0 25 0 -2 283 -3 282 -22 3 c-23 3 -23 3 -23 -128 l0 -131 -71 3 -71 3 -1
125 c-2 121 -3 125 -24 128 l-23 3 0 -285z"/>
<path d="M4470 2057 c0 -199 3 -276 12 -285 8 -8 47 -12 108 -12 61 0 100 4
108 12 9 9 12 75 12 236 0 147 3 221 10 217 9 -6 50 73 50 97 0 21 -44 2 -51
-22 l-7 -25 -1 28 c-1 22 -6 27 -26 27 l-25 0 0 -265 0 -265 -70 0 -70 0 0
265 0 265 -25 0 -25 0 0 -273z"/>
<path d="M4830 2045 c0 -278 0 -285 20 -285 19 0 20 7 20 200 0 111 4 200 9
200 5 0 27 -51 49 -112 92 -258 104 -288 118 -288 12 0 14 47 14 285 0 278 0
285 -20 285 -19 0 -20 -7 -20 -202 0 -111 -4 -198 -8 -193 -5 6 -40 97 -78
202 -54 151 -73 193 -86 193 -17 0 -18 -20 -18 -285z"/>
<path d="M5172 2318 c-9 -9 -12 -83 -12 -273 0 -190 3 -264 12 -273 8 -8 47
-12 109 -12 79 0 98 3 103 16 3 9 6 72 6 140 l0 124 -55 0 c-48 0 -55 -2 -55
-20 0 -15 7 -20 29 -20 l30 0 3 -100 3 -100 -67 0 -68 0 0 245 0 245 65 0 65
0 0 -65 c0 -63 1 -65 25 -65 24 0 25 2 25 73 0 43 -5 78 -12 85 -8 8 -46 12
-103 12 -57 0 -95 -4 -103 -12z"/>
<path d="M5630 2045 l0 -285 25 0 24 0 3 133 3 132 65 -132 c55 -113 68 -133
87 -133 13 0 23 2 23 5 0 3 -29 67 -65 142 -36 75 -65 141 -65 147 0 6 27 67
60 135 33 68 60 127 60 132 0 5 -10 9 -23 9 -20 0 -30 -16 -72 -107 -76 -168
-75 -168 -75 -20 l0 127 -25 0 -25 0 0 -285z"/>
<path d="M5920 2045 l0 -285 25 0 25 0 0 135 0 135 70 0 70 0 0 -135 0 -135
25 0 25 0 0 285 0 285 -25 0 -25 0 0 -130 0 -130 -70 0 -70 0 0 130 0 130 -25
0 -25 0 0 -285z"/>
<path d="M6271 2316 c-8 -9 -11 -92 -9 -282 l3 -269 110 0 110 0 5 260 c3 146
1 270 -4 283 -9 21 -15 22 -106 22 -71 0 -101 -4 -109 -14z m177 -274 l2 -243
-71 3 -71 3 1 240 c0 132 1 241 1 243 0 2 30 2 68 0 l67 -3 3 -243z"/>
<path d="M6590 2045 l0 -285 25 0 25 0 -3 200 c-1 110 1 200 4 200 4 0 37 -84
74 -187 37 -104 70 -194 72 -200 3 -7 11 -13 19 -13 12 0 14 48 14 285 0 278
0 285 -20 285 -19 0 -20 -7 -20 -202 0 -121 -4 -197 -9 -188 -9 15 -122 322
-136 368 -4 13 -14 22 -26 22 -18 0 -19 -10 -19 -285z"/>
<path d="M6930 2311 c-6 -12 -10 -118 -10 -274 0 -206 3 -257 14 -266 9 -8 48
-11 112 -9 l99 3 3 138 3 137 -56 0 c-48 0 -55 -2 -55 -20 0 -16 7 -20 30 -20
24 0 30 -4 31 -22 0 -13 1 -58 2 -100 l2 -78 -67 0 -68 0 0 245 0 246 67 -3
67 -3 -3 -62 c-2 -62 -2 -63 23 -63 26 0 26 1 26 73 0 43 -5 78 -12 85 -8 8
-46 12 -105 12 -81 0 -94 -2 -103 -19z"/>
<path d="M7406 2315 c-12 -13 -15 -56 -16 -265 0 -159 3 -257 10 -270 10 -18
21 -20 103 -20 59 0 97 4 105 12 7 7 12 43 12 90 0 77 0 78 -25 78 -24 0 -25
-2 -25 -70 l0 -70 -65 0 -65 0 0 245 0 245 65 0 65 0 0 -65 c0 -63 1 -65 25
-65 24 0 25 2 25 73 0 43 -5 78 -12 85 -19 19 -183 16 -202 -3z"/>
<path d="M7710 2064 c0 -164 4 -273 10 -285 10 -17 22 -19 108 -19 63 0 102 4
110 12 9 9 12 86 12 285 l0 273 -25 0 -25 0 0 -265 0 -265 -70 0 -70 0 0 265
0 265 -25 0 -25 0 0 -266z"/>
</g>
</svg>
