<?xml version="1.0" encoding="UTF-8"?>
<!DOCTYPE svg PUBLIC "-//W3C//DTD SVG 1.1//EN" "http://www.w3.org/Graphics/SVG/1.1/DTD/svg10.dtd">
<svg xmlns="http://www.w3.org/2000/svg" version="1.1" width="960pt" height="960pt" viewBox="0 0 960.000000 960.000000"  xmlns:xlink="http://www.w3.org/1999/xlink">
<g><path style="opacity:0.984" fill="#fdfdfd" d="M 575.5,149.5 C 586.853,149.168 598.186,149.501 609.5,150.5C 612.06,151.747 614.727,152.747 617.5,153.5C 622,156.585 626.667,159.418 631.5,162C 637.61,168.722 643.277,175.222 648.5,181.5C 648.291,182.086 647.957,182.586 647.5,183C 651.316,187.927 655.65,192.427 660.5,196.5C 671.078,205.134 680.745,204.3 689.5,194C 689.167,193.667 688.833,193.333 688.5,193C 690.872,189.97 693.205,186.97 695.5,184C 695.043,183.586 694.709,183.086 694.5,182.5C 695.95,179.765 697.283,176.932 698.5,174C 699.225,168.632 700.559,163.465 702.5,158.5C 715.565,158.713 728.565,159.88 741.5,162C 744.276,162.066 746.442,163.232 748,165.5C 747.993,177.197 745.493,188.363 740.5,199C 734.523,213.69 725.357,225.856 713,235.5C 698.905,245.28 683.405,248.114 666.5,244C 666.833,243.667 667.167,243.333 667.5,243C 651.89,238.975 640.557,230.308 633.5,217C 632.039,215.649 630.706,214.149 629.5,212.5C 629.709,211.914 630.043,211.414 630.5,211C 629.027,210.29 628.36,209.124 628.5,207.5C 625.15,207.665 621.817,207.498 618.5,207C 620.221,205.473 622.221,204.473 624.5,204C 623.167,203 623.167,202 624.5,201C 621.697,198.152 619.197,194.986 617,191.5C 613.1,187.967 608.6,185.634 603.5,184.5C 598.25,185.976 593.25,188.143 588.5,191C 588.959,192.943 587.959,194.276 585.5,195C 585.957,195.414 586.291,195.914 586.5,196.5C 583.648,198.825 582.648,201.492 583.5,204.5C 580.833,210.5 580.833,216.5 583.5,222.5C 583.43,223.772 583.097,224.938 582.5,226C 585.082,228.958 585.082,231.958 582.5,235C 566.653,240.527 550.319,244.027 533.5,245.5C 527.116,231.769 525.783,217.436 529.5,202.5C 531.449,191.012 535.949,180.679 543,171.5C 546.608,168.936 549.774,165.936 552.5,162.5C 559.871,157.323 567.538,152.99 575.5,149.5 Z"/></g>
<g><path style="opacity:0.004" fill="#959595" d="M 617.5,235.5 C 618.525,235.897 618.692,236.563 618,237.5C 617.536,236.906 617.369,236.239 617.5,235.5 Z"/></g>
<g><path style="opacity:0.23" fill="#c9c9c9" d="M 643.5,260.5 C 645.648,260.389 645.981,261.056 644.5,262.5C 640.886,266.165 636.553,267.332 631.5,266C 635.848,264.621 639.848,262.787 643.5,260.5 Z"/></g>
<g><path style="opacity:0.008" fill="#202120" d="M 641.5,267.5 C 642.833,268.167 642.833,268.167 641.5,267.5 Z"/></g>
<g><path style="opacity:0.863" fill="#9e9e9e" d="M 312.5,278.5 C 299.482,278.339 286.482,278.673 273.5,279.5C 280.939,277.978 288.606,277.311 296.5,277.5C 302.011,277.501 307.344,277.834 312.5,278.5 Z"/></g>
<g><path style="opacity:1" fill="#fbfbfb" d="M 312.5,278.5 C 313.5,278.5 314.5,278.5 315.5,278.5C 315.611,279.117 315.944,279.617 316.5,280C 318.81,280.497 321.143,280.663 323.5,280.5C 338.654,284.244 352.321,290.911 364.5,300.5C 366.194,302.861 368.194,304.861 370.5,306.5C 370.56,307.043 370.893,307.376 371.5,307.5C 372.487,304.232 372.82,300.898 372.5,297.5C 373.18,289.157 377.513,283.824 385.5,281.5C 388.152,281.59 390.485,280.924 392.5,279.5C 396.516,278.257 400.516,278.257 404.5,279.5C 404.611,280.117 404.944,280.617 405.5,281C 407.473,281.495 409.473,281.662 411.5,281.5C 416.068,283.402 419.735,286.402 422.5,290.5C 422.427,292.027 423.094,293.027 424.5,293.5C 426.912,298.685 427.912,304.185 427.5,310C 427.38,316.91 426.713,323.744 425.5,330.5C 423.502,339.456 423.169,348.456 424.5,357.5C 426.18,368.448 427.013,379.448 427,390.5C 424.658,404.511 416.491,413.011 402.5,416C 393.838,417.949 385.172,417.949 376.5,416C 373.401,415.613 370.734,414.446 368.5,412.5C 368.027,411.094 367.027,410.427 365.5,410.5C 360.905,406.988 358.071,402.322 357,396.5C 356.233,388.785 356.4,381.118 357.5,373.5C 357.664,370.813 357.497,368.146 357,365.5C 356.722,364.584 356.222,363.918 355.5,363.5C 352.573,357.242 348.239,352.242 342.5,348.5C 342.027,347.094 341.027,346.427 339.5,346.5C 292.817,332.941 265.317,350.274 257,398.5C 252.609,429.775 253.943,460.775 261,491.5C 263.083,496.6 265.25,501.6 267.5,506.5C 267.427,508.027 268.094,509.027 269.5,509.5C 277.187,519.351 287.187,525.685 299.5,528.5C 300.263,529.268 301.263,529.768 302.5,530C 309.679,530.821 316.679,530.655 323.5,529.5C 333.868,528.481 342.868,524.481 350.5,517.5C 352.5,517.5 353.5,516.5 353.5,514.5C 354.263,512.632 355.263,510.965 356.5,509.5C 357.117,509.389 357.617,509.056 358,508.5C 358.495,506.527 358.662,504.527 358.5,502.5C 358.5,502.167 358.5,501.833 358.5,501.5C 359.494,491.347 359.828,481.014 359.5,470.5C 365.448,455.935 376.448,448.935 392.5,449.5C 396.761,449.411 400.761,450.078 404.5,451.5C 405.469,452.309 406.302,453.309 407,454.5C 408.011,453.663 409.178,453.33 410.5,453.5C 413.503,454.666 416.17,456.333 418.5,458.5C 418.5,460.5 419.5,461.5 421.5,461.5C 430.071,471.879 434.071,483.879 433.5,497.5C 432.093,531.368 417.093,557.201 388.5,575C 375.405,582.718 361.405,587.885 346.5,590.5C 342.267,590.539 338.267,591.205 334.5,592.5C 330.936,593.423 327.269,593.756 323.5,593.5C 315.16,593.666 306.827,593.5 298.5,593C 289.378,591.902 280.378,590.735 271.5,589.5C 269.485,588.076 267.152,587.41 264.5,587.5C 262.898,585.926 260.898,585.259 258.5,585.5C 237.916,579.386 220.916,568.053 207.5,551.5C 207.167,550.5 206.5,549.833 205.5,549.5C 198.937,542.714 193.604,535.048 189.5,526.5C 190.47,524.026 189.47,522.359 186.5,521.5C 185.89,520.609 185.557,519.609 185.5,518.5C 185.598,516.447 184.931,514.78 183.5,513.5C 181.263,509.466 179.596,505.132 178.5,500.5C 178.357,498.738 178.691,497.071 179.5,495.5C 179.154,494.304 178.654,494.304 178,495.5C 177.901,493.347 177.067,491.681 175.5,490.5C 167.893,455.907 167.559,421.24 174.5,386.5C 176.04,384.162 176.706,381.495 176.5,378.5C 176.366,376.708 176.699,375.042 177.5,373.5C 179.472,370.916 180.472,367.916 180.5,364.5C 183.493,354.184 187.827,344.517 193.5,335.5C 194.906,335.027 195.573,334.027 195.5,332.5C 209.066,309.607 228.399,293.607 253.5,284.5C 256.152,284.59 258.485,283.924 260.5,282.5C 264.474,280.425 268.808,279.425 273.5,279.5C 286.482,278.673 299.482,278.339 312.5,278.5 Z"/></g>
<g><path style="opacity:0.871" fill="#929292" d="M 315.5,278.5 C 318.373,278.802 321.039,279.469 323.5,280.5C 321.143,280.663 318.81,280.497 316.5,280C 315.944,279.617 315.611,279.117 315.5,278.5 Z"/></g>
<g><path style="opacity:0.937" fill="#a8a8a8" d="M 392.5,279.5 C 390.485,280.924 388.152,281.59 385.5,281.5C 387.515,280.076 389.848,279.41 392.5,279.5 Z"/></g>
<g><path style="opacity:0.918" fill="#a7a7a7" d="M 404.5,279.5 C 407.067,279.721 409.401,280.388 411.5,281.5C 409.473,281.662 407.473,281.495 405.5,281C 404.944,280.617 404.611,280.117 404.5,279.5 Z"/></g>
<g><path style="opacity:0.945" fill="#a3a3a3" d="M 260.5,282.5 C 258.485,283.924 256.152,284.59 253.5,284.5C 255.515,283.076 257.848,282.41 260.5,282.5 Z"/></g>
<g><path style="opacity:1" fill="#fbfbfb" d="M 614.5,291.5 C 614.427,293.027 615.094,294.027 616.5,294.5C 616.427,296.027 617.094,297.027 618.5,297.5C 622.02,303.58 623.687,310.247 623.5,317.5C 623.718,339.765 612.718,348.932 590.5,345C 589.956,345.717 589.289,346.217 588.5,346.5C 586.571,346.231 584.905,346.731 583.5,348C 584.331,392.096 584.831,436.262 585,480.5C 585.183,483.365 585.683,486.031 586.5,488.5C 587.623,493.35 588.623,498.35 589.5,503.5C 589.338,505.527 589.505,507.527 590,509.5C 590.77,508.402 591.603,508.402 592.5,509.5C 593.752,511.001 594.752,512.668 595.5,514.5C 595.751,516.17 596.418,517.67 597.5,519C 599.531,520.296 601.364,521.796 603,523.5C 603.383,522.944 603.883,522.611 604.5,522.5C 610.923,525.106 617.59,526.772 624.5,527.5C 629.5,528.833 634.5,528.833 639.5,527.5C 658.709,525.757 671.042,515.757 676.5,497.5C 677.222,497.082 677.722,496.416 678,495.5C 678.497,492.854 678.664,490.187 678.5,487.5C 678.814,440.81 678.48,394.143 677.5,347.5C 677.461,346.417 677.127,345.417 676.5,344.5C 668.165,343.707 659.831,343.04 651.5,342.5C 645.926,340.05 642.759,335.717 642,329.5C 640.387,322.835 640.22,316.168 641.5,309.5C 642.924,307.485 643.59,305.152 643.5,302.5C 643.5,302.167 643.5,301.833 643.5,301.5C 644.906,301.027 645.573,300.027 645.5,298.5C 651.433,287.944 660.6,282.944 673,283.5C 680.228,283.778 687.395,284.445 694.5,285.5C 699.583,287.078 704.916,287.745 710.5,287.5C 733.559,287.252 756.559,285.919 779.5,283.5C 786.892,283.045 793.892,284.379 800.5,287.5C 801.035,289.446 802.368,290.446 804.5,290.5C 807.55,292.549 809.883,295.216 811.5,298.5C 811.427,300.027 812.094,301.027 813.5,301.5C 813.5,301.833 813.5,302.167 813.5,302.5C 813.41,305.152 814.076,307.485 815.5,309.5C 818.343,321.964 815.343,332.798 806.5,342C 804.783,343.559 802.783,344.392 800.5,344.5C 794.87,345.292 789.203,345.625 783.5,345.5C 778.536,344.405 773.536,343.905 768.5,344C 764.214,346.289 761.381,349.789 760,354.5C 758.911,366.798 758.411,379.131 758.5,391.5C 759.939,427.507 759.773,463.507 758,499.5C 757.089,525.985 746.589,547.652 726.5,564.5C 724.167,564.5 721.833,564.5 719.5,564.5C 717.588,566.822 716.255,569.488 715.5,572.5C 703.272,580.359 689.939,585.692 675.5,588.5C 673.409,588.682 671.409,588.348 669.5,587.5C 668.575,588.357 667.908,589.357 667.5,590.5C 666.833,590.5 666.167,590.5 665.5,590.5C 660.924,590.438 656.591,591.105 652.5,592.5C 637.241,593.649 621.908,593.816 606.5,593C 596.155,592.334 586.155,590.5 576.5,587.5C 574.485,586.076 572.152,585.41 569.5,585.5C 560.712,583.357 552.712,579.691 545.5,574.5C 545.027,573.094 544.027,572.427 542.5,572.5C 542.027,571.094 541.027,570.427 539.5,570.5C 525.232,560.983 515.566,547.983 510.5,531.5C 510.741,529.102 510.074,527.102 508.5,525.5C 503.668,504.724 502.335,483.724 504.5,462.5C 505.495,449.677 505.829,436.677 505.5,423.5C 505.667,401.831 505.5,380.164 505,358.5C 504.918,349.93 500.752,344.93 492.5,343.5C 486.234,344.984 479.901,345.984 473.5,346.5C 469.64,346.634 465.973,345.967 462.5,344.5C 462.027,343.094 461.027,342.427 459.5,342.5C 449.866,334.442 446.033,324.109 448,311.5C 452.573,291.78 465.073,282.447 485.5,283.5C 503.83,284.916 522.164,286.25 540.5,287.5C 557.531,286.58 574.531,285.246 591.5,283.5C 600.469,282.653 608.136,285.319 614.5,291.5 Z"/></g>
<g><path style="opacity:0.514" fill="#737373" d="M 694.5,285.5 C 700.034,285.668 705.367,286.335 710.5,287.5C 704.916,287.745 699.583,287.078 694.5,285.5 Z"/></g>
<g><path style="opacity:0.925" fill="#838383" d="M 800.5,287.5 C 802.23,288.026 803.564,289.026 804.5,290.5C 802.368,290.446 801.035,289.446 800.5,287.5 Z"/></g>
<g><path style="opacity:0.239" fill="#585858" d="M 422.5,290.5 C 423.906,290.973 424.573,291.973 424.5,293.5C 423.094,293.027 422.427,292.027 422.5,290.5 Z"/></g>
<g><path style="opacity:0.561" fill="#636363" d="M 614.5,291.5 C 615.906,291.973 616.573,292.973 616.5,294.5C 615.094,294.027 614.427,293.027 614.5,291.5 Z"/></g>
<g><path style="opacity:0.478" fill="#7c7c7c" d="M 616.5,294.5 C 617.906,294.973 618.573,295.973 618.5,297.5C 617.094,297.027 616.427,296.027 616.5,294.5 Z"/></g>
<g><path style="opacity:0.02" fill="#222322" d="M 364.5,299.5 C 365.833,300.167 365.833,300.167 364.5,299.5 Z"/></g>
<g><path style="opacity:0.302" fill="#575757" d="M 372.5,297.5 C 372.82,300.898 372.487,304.232 371.5,307.5C 370.893,307.376 370.56,307.043 370.5,306.5C 371.167,303.5 371.833,300.5 372.5,297.5 Z"/></g>
<g><path style="opacity:0.192" fill="#555555" d="M 645.5,298.5 C 645.573,300.027 644.906,301.027 643.5,301.5C 643.427,299.973 644.094,298.973 645.5,298.5 Z"/></g>
<g><path style="opacity:0.2" fill="#595959" d="M 811.5,298.5 C 812.906,298.973 813.573,299.973 813.5,301.5C 812.094,301.027 811.427,300.027 811.5,298.5 Z"/></g>
<g><path style="opacity:0.424" fill="#6e6e6e" d="M 643.5,302.5 C 643.59,305.152 642.924,307.485 641.5,309.5C 641.41,306.848 642.076,304.515 643.5,302.5 Z"/></g>
<g><path style="opacity:0.8" fill="#959595" d="M 813.5,302.5 C 814.578,304.539 815.578,306.706 816.5,309C 816.272,309.399 815.938,309.565 815.5,309.5C 814.076,307.485 813.41,305.152 813.5,302.5 Z"/></g>
<g><path style="opacity:0.424" fill="#727272" d="M 195.5,332.5 C 195.573,334.027 194.906,335.027 193.5,335.5C 193.427,333.973 194.094,332.973 195.5,332.5 Z"/></g>
<g><path style="opacity:0.247" fill="#585858" d="M 459.5,342.5 C 461.027,342.427 462.027,343.094 462.5,344.5C 460.973,344.573 459.973,343.906 459.5,342.5 Z"/></g>
<g><path style="opacity:0.616" fill="#959595" d="M 651.5,342.5 C 659.831,343.04 668.165,343.707 676.5,344.5C 677.127,345.417 677.461,346.417 677.5,347.5C 676.317,346.496 674.984,345.662 673.5,345C 667.167,344.667 660.833,344.333 654.5,344C 653.263,343.768 652.263,343.268 651.5,342.5 Z"/></g>
<g><path style="opacity:0.835" fill="#b7b7b7" d="M 800.5,344.5 C 800.082,345.222 799.416,345.722 798.5,346C 793.316,346.816 788.316,346.65 783.5,345.5C 789.203,345.625 794.87,345.292 800.5,344.5 Z"/></g>
<g><path style="opacity:0.286" fill="#606060" d="M 339.5,346.5 C 341.027,346.427 342.027,347.094 342.5,348.5C 340.973,348.573 339.973,347.906 339.5,346.5 Z"/></g>
<g><path style="opacity:0.212" fill="#5b5b5b" d="M 425.5,330.5 C 424.893,339.487 424.56,348.487 424.5,357.5C 423.169,348.456 423.502,339.456 425.5,330.5 Z"/></g>
<g><path style="opacity:0.987" fill="#828282" d="M 588.5,346.5 C 587.273,348.903 586.273,351.403 585.5,354C 586.391,398.905 586.724,443.738 586.5,488.5C 585.683,486.031 585.183,483.365 585,480.5C 584.831,436.262 584.331,392.096 583.5,348C 584.905,346.731 586.571,346.231 588.5,346.5 Z"/></g>
<g><path style="opacity:0.816" fill="#898989" d="M 180.5,364.5 C 180.472,367.916 179.472,370.916 177.5,373.5C 177.928,370.215 178.928,367.215 180.5,364.5 Z"/></g>
<g><path style="opacity:0.055" fill="#4a4a4a" d="M 355.5,363.5 C 356.222,363.918 356.722,364.584 357,365.5C 357.497,368.146 357.664,370.813 357.5,373.5C 356.566,370.344 355.899,367.011 355.5,363.5 Z"/></g>
<g><path style="opacity:0.533" fill="#7f7f7f" d="M 176.5,378.5 C 176.706,381.495 176.04,384.162 174.5,386.5C 174.565,383.572 175.232,380.905 176.5,378.5 Z"/></g>
<g><path style="opacity:0.459" fill="#757575" d="M 365.5,410.5 C 367.027,410.427 368.027,411.094 368.5,412.5C 366.973,412.573 365.973,411.906 365.5,410.5 Z"/></g>
<g><path style="opacity:1" fill="#999999" d="M 404.5,451.5 C 406.786,451.595 408.786,452.262 410.5,453.5C 409.178,453.33 408.011,453.663 407,454.5C 406.302,453.309 405.469,452.309 404.5,451.5 Z"/></g>
<g><path style="opacity:0.506" fill="#5c5c5c" d="M 418.5,458.5 C 419.833,459.167 420.833,460.167 421.5,461.5C 419.5,461.5 418.5,460.5 418.5,458.5 Z"/></g>
<g><path style="opacity:0.986" fill="#949494" d="M 505.5,423.5 C 505.829,436.677 505.495,449.677 504.5,462.5C 504.389,461.883 504.056,461.383 503.5,461C 504.158,448.402 504.824,435.902 505.5,423.5 Z"/></g>
<g><path style="opacity:0.604" fill="#898989" d="M 359.5,470.5 C 359.828,481.014 359.494,491.347 358.5,501.5C 358.644,494.644 358.311,487.81 357.5,481C 357.701,477.277 358.367,473.777 359.5,470.5 Z"/></g>
<g><path style="opacity:0.882" fill="#a2a2a2" d="M 175.5,490.5 C 177.067,491.681 177.901,493.347 178,495.5C 178.654,494.304 179.154,494.304 179.5,495.5C 178.691,497.071 178.357,498.738 178.5,500.5C 177.13,497.381 176.13,494.048 175.5,490.5 Z"/></g>
<g><path style="opacity:1" fill="#a3a3a3" d="M 678.5,487.5 C 678.664,490.187 678.497,492.854 678,495.5C 677.722,496.416 677.222,497.082 676.5,497.5C 676.753,493.96 677.419,490.627 678.5,487.5 Z"/></g>
<g><path style="opacity:1" fill="#a4a4a4" d="M 589.5,503.5 C 591.008,505.181 592.008,507.181 592.5,509.5C 591.603,508.402 590.77,508.402 590,509.5C 589.505,507.527 589.338,505.527 589.5,503.5 Z"/></g>
<g><path style="opacity:1" fill="#939393" d="M 358.5,502.5 C 358.662,504.527 358.495,506.527 358,508.5C 357.617,509.056 357.117,509.389 356.5,509.5C 356.721,506.933 357.388,504.599 358.5,502.5 Z"/></g>
<g><path style="opacity:0.494" fill="#7c7c7c" d="M 267.5,506.5 C 268.906,506.973 269.573,507.973 269.5,509.5C 268.094,509.027 267.427,508.027 267.5,506.5 Z"/></g>
<g><path style="opacity:0.588" fill="#858585" d="M 183.5,513.5 C 184.931,514.78 185.598,516.447 185.5,518.5C 184.069,517.22 183.402,515.553 183.5,513.5 Z"/></g>
<g><path style="opacity:0.686" fill="#838383" d="M 353.5,514.5 C 353.5,516.5 352.5,517.5 350.5,517.5C 351.167,516.167 352.167,515.167 353.5,514.5 Z"/></g>
<g><path style="opacity:0.976" fill="#b8b8b8" d="M 595.5,514.5 C 598.5,517.167 601.5,519.833 604.5,522.5C 603.883,522.611 603.383,522.944 603,523.5C 601.364,521.796 599.531,520.296 597.5,519C 596.418,517.67 595.751,516.17 595.5,514.5 Z"/></g>
<g><path style="opacity:1" fill="#a9a9a9" d="M 186.5,521.5 C 189.47,522.359 190.47,524.026 189.5,526.5C 188.263,525.035 187.263,523.368 186.5,521.5 Z"/></g>
<g><path style="opacity:0.247" fill="#696969" d="M 639.5,527.5 C 634.5,528.833 629.5,528.833 624.5,527.5C 629.809,527.408 634.809,527.408 639.5,527.5 Z"/></g>
<g><path style="opacity:0.522" fill="#737373" d="M 508.5,525.5 C 510.074,527.102 510.741,529.102 510.5,531.5C 509.262,529.786 508.595,527.786 508.5,525.5 Z"/></g>
<g><path style="opacity:0.133" fill="#5a5a5a" d="M 299.5,528.5 C 307.471,529.323 315.471,529.656 323.5,529.5C 316.679,530.655 309.679,530.821 302.5,530C 301.263,529.768 300.263,529.268 299.5,528.5 Z"/></g>
<g><path style="opacity:0.02" fill="#4e4e4e" d="M 205.5,549.5 C 206.5,549.833 207.167,550.5 207.5,551.5C 206.167,551.5 205.5,550.833 205.5,549.5 Z"/></g>
<g><path style="opacity:1" fill="#c6c6c6" d="M 726.5,564.5 C 723.048,567.399 719.382,570.066 715.5,572.5C 716.255,569.488 717.588,566.822 719.5,564.5C 721.833,564.5 724.167,564.5 726.5,564.5 Z"/></g>
<g><path style="opacity:0.808" fill="#888888" d="M 539.5,570.5 C 541.027,570.427 542.027,571.094 542.5,572.5C 540.973,572.573 539.973,571.906 539.5,570.5 Z"/></g>
<g><path style="opacity:0.506" fill="#7c7c7c" d="M 542.5,572.5 C 544.027,572.427 545.027,573.094 545.5,574.5C 543.973,574.573 542.973,573.906 542.5,572.5 Z"/></g>
<g><path style="opacity:0.788" fill="#878787" d="M 569.5,585.5 C 572.152,585.41 574.485,586.076 576.5,587.5C 573.848,587.59 571.515,586.924 569.5,585.5 Z"/></g>
<g><path style="opacity:0.714" fill="#9d9d9d" d="M 258.5,585.5 C 260.898,585.259 262.898,585.926 264.5,587.5C 262.102,587.741 260.102,587.074 258.5,585.5 Z"/></g>
<g><path style="opacity:1" fill="#a2a2a2" d="M 675.5,588.5 C 673.039,589.531 670.373,590.198 667.5,590.5C 667.908,589.357 668.575,588.357 669.5,587.5C 671.409,588.348 673.409,588.682 675.5,588.5 Z"/></g>
<g><path style="opacity:0.659" fill="#8c8c8c" d="M 264.5,587.5 C 267.152,587.41 269.485,588.076 271.5,589.5C 268.848,589.59 266.515,588.924 264.5,587.5 Z"/></g>
<g><path style="opacity:1" fill="#828282" d="M 271.5,589.5 C 280.378,590.735 289.378,591.902 298.5,593C 306.827,593.5 315.16,593.666 323.5,593.5C 305.936,595.478 288.603,594.144 271.5,589.5 Z"/></g>
<g><path style="opacity:0.404" fill="#747474" d="M 346.5,590.5 C 342.798,591.653 338.965,592.653 335,593.5C 334.601,593.272 334.435,592.938 334.5,592.5C 338.267,591.205 342.267,590.539 346.5,590.5 Z"/></g>
<g><path style="opacity:0.267" fill="#656565" d="M 665.5,590.5 C 661.409,591.895 657.076,592.562 652.5,592.5C 656.591,591.105 660.924,590.438 665.5,590.5 Z"/></g>
<g><path style="opacity:0.643" fill="#8f8f8f" d="M 202.5,694.5 C 197.13,694.392 191.797,694.725 186.5,695.5C 189.356,693.994 192.523,693.328 196,693.5C 198.361,693.504 200.527,693.837 202.5,694.5 Z"/></g>
<g><path style="opacity:1" fill="#ededed" d="M 202.5,694.5 C 204.242,696.769 206.576,698.102 209.5,698.5C 212.93,701.524 214.93,705.357 215.5,710C 215.297,716.28 212.963,721.614 208.5,726C 202.018,729.01 195.685,732.177 189.5,735.5C 191.57,735.552 193.903,735.719 196.5,736C 198.421,736.36 200.088,737.194 201.5,738.5C 201.842,735.855 203.175,733.355 205.5,731C 213.209,729.704 216.876,733.037 216.5,741C 216.844,747.309 214.511,752.309 209.5,756C 207.527,756.495 205.527,756.662 203.5,756.5C 201.544,755.508 199.544,754.508 197.5,753.5C 195.177,751.678 193.011,749.678 191,747.5C 190.902,750.522 190.068,753.189 188.5,755.5C 185.43,755.632 182.43,755.299 179.5,754.5C 176.73,752.634 175.23,749.968 175,746.5C 174.223,738.214 176.723,731.047 182.5,725C 188.085,721.625 193.585,718.125 199,714.5C 201.119,711.354 200.619,708.687 197.5,706.5C 196.726,705.853 195.726,705.52 194.5,705.5C 192.97,705.64 191.97,706.307 191.5,707.5C 190.742,709.981 190.742,712.648 191.5,715.5C 191.426,717.411 190.426,718.578 188.5,719C 177.814,719.854 174.148,715.021 177.5,704.5C 178.906,704.027 179.573,703.027 179.5,701.5C 181.167,700.5 182.5,699.167 183.5,697.5C 183.973,696.094 184.973,695.427 186.5,695.5C 191.797,694.725 197.13,694.392 202.5,694.5 Z"/></g>
<g><path style="opacity:1" fill="#858585" d="M 244.5,697.5 C 243.711,697.217 243.044,696.717 242.5,696C 237.649,695.826 232.982,695.326 228.5,694.5C 232.39,694.728 236.224,694.394 240,693.5C 242.521,693.822 244.021,695.156 244.5,697.5 Z"/></g>
<g><path style="opacity:0.773" fill="#878787" d="M 269.5,695.5 C 262.5,695.5 255.5,695.5 248.5,695.5C 249.172,694.733 250.005,694.066 251,693.5C 255.743,694.65 260.743,694.65 266,693.5C 267.459,693.808 268.626,694.475 269.5,695.5 Z"/></g>
<g><path style="opacity:0.733" fill="#808080" d="M 395.5,695.5 C 389.741,695.214 384.075,695.548 378.5,696.5C 379.014,694.561 380.347,693.561 382.5,693.5C 386.054,694.721 389.554,694.721 393,693.5C 393.995,694.066 394.828,694.733 395.5,695.5 Z"/></g>
<g><path style="opacity:0.725" fill="#878787" d="M 450.5,696.5 C 445.065,695.877 439.732,695.21 434.5,694.5C 438.571,694.766 442.571,694.433 446.5,693.5C 448.483,693.815 449.816,694.815 450.5,696.5 Z"/></g>
<g><path style="opacity:0.384" fill="#757575" d="M 476.5,695.5 C 469.5,695.5 462.5,695.5 455.5,695.5C 456.496,694.335 457.829,693.668 459.5,693.5C 463.833,694.833 468.167,694.833 472.5,693.5C 474.171,693.668 475.504,694.335 476.5,695.5 Z"/></g>
<g><path style="opacity:1" fill="#f2f2f2" d="M 227.5,694.5 C 227.833,694.5 228.167,694.5 228.5,694.5C 232.982,695.326 237.649,695.826 242.5,696C 243.044,696.717 243.711,697.217 244.5,697.5C 245.928,701.551 244.928,704.884 241.5,707.5C 240.513,710.768 240.18,714.102 240.5,717.5C 243.833,717.5 247.167,717.5 250.5,717.5C 251.777,716.306 252.444,714.64 252.5,712.5C 252.493,710.631 252.16,708.964 251.5,707.5C 250.209,707.737 249.209,707.404 248.5,706.5C 248.737,705.209 248.404,704.209 247.5,703.5C 246.553,700.78 246.887,698.114 248.5,695.5C 255.5,695.5 262.5,695.5 269.5,695.5C 271.931,696.607 272.931,698.607 272.5,701.5C 272.333,702.833 272.167,704.167 272,705.5C 271.617,706.056 271.117,706.389 270.5,706.5C 268.833,706.5 267.167,706.5 265.5,706.5C 265.172,718.678 265.505,730.678 266.5,742.5C 268.722,742.178 270.556,742.845 272,744.5C 272.667,747.167 272.667,749.833 272,752.5C 271.292,753.381 270.458,754.047 269.5,754.5C 262.11,754.764 254.777,754.43 247.5,753.5C 246.233,750.728 246.233,748.061 247.5,745.5C 248.885,744.386 250.385,743.386 252,742.5C 252.812,738.311 252.645,734.311 251.5,730.5C 247.702,729.517 243.702,729.183 239.5,729.5C 239.182,734.032 239.515,738.366 240.5,742.5C 243.687,743.326 245.353,745.493 245.5,749C 245.066,751.316 244.066,753.316 242.5,755C 235.833,755.667 229.167,755.667 222.5,755C 221.619,754.292 220.953,753.458 220.5,752.5C 220.5,749.833 220.5,747.167 220.5,744.5C 221.635,742.787 223.302,742.12 225.5,742.5C 225.5,730.833 225.5,719.167 225.5,707.5C 223.278,707.822 221.444,707.155 220,705.5C 219.199,702.633 219.366,699.966 220.5,697.5C 222.547,695.925 224.881,694.925 227.5,694.5 Z"/></g>
<g><path style="opacity:1" fill="#ececec" d="M 395.5,695.5 C 396.496,711.658 396.83,727.991 396.5,744.5C 398.698,744.12 400.365,744.787 401.5,746.5C 401.167,749.167 400.833,751.833 400.5,754.5C 398.19,755.164 395.69,755.497 393,755.5C 389.965,755.391 387.131,754.724 384.5,753.5C 383.378,754.63 382.044,755.297 380.5,755.5C 377.167,755.5 373.833,755.5 370.5,755.5C 370.027,754.094 369.027,753.427 367.5,753.5C 364.841,750.757 363.008,747.423 362,743.5C 360.907,734.342 361.574,725.342 364,716.5C 368.699,708.36 374.865,706.694 382.5,711.5C 382.56,712.043 382.893,712.376 383.5,712.5C 384.797,710.027 384.797,707.693 383.5,705.5C 381.278,705.822 379.444,705.155 378,703.5C 377.204,700.961 377.371,698.628 378.5,696.5C 384.075,695.548 389.741,695.214 395.5,695.5 Z M 375.5,741.5 C 374.6,736.228 374.267,730.895 374.5,725.5C 377.346,720.272 380.179,720.272 383,725.5C 385.068,731.487 384.568,737.32 381.5,743C 378.843,745.173 376.843,744.673 375.5,741.5 Z"/></g>
<g><path style="opacity:1" fill="#f5f5f5" d="M 434.5,694.5 C 439.732,695.21 445.065,695.877 450.5,696.5C 451.638,699.304 451.805,702.304 451,705.5C 447.899,708.779 446.732,712.779 447.5,717.5C 451.351,718.029 454.851,717.362 458,715.5C 459.362,711.541 458.362,708.541 455,706.5C 452.875,702.606 453.042,698.939 455.5,695.5C 462.5,695.5 469.5,695.5 476.5,695.5C 476.631,696.239 476.464,696.906 476,697.5C 475.346,696.304 474.846,696.304 474.5,697.5C 475.025,698.192 475.692,698.692 476.5,699C 475.643,699.689 474.977,700.522 474.5,701.5C 475.165,703.101 475.499,704.601 475.5,706C 473.337,706.245 471.67,707.245 470.5,709C 471.322,720.09 471.822,731.257 472,742.5C 473.699,743.406 475.533,743.739 477.5,743.5C 478.338,743.842 478.672,744.508 478.5,745.5C 478.072,748.564 477.406,751.564 476.5,754.5C 469.11,754.764 461.777,754.43 454.5,753.5C 453.167,750.5 453.167,747.5 454.5,744.5C 456.17,744.249 457.67,743.582 459,742.5C 459.812,738.311 459.645,734.311 458.5,730.5C 454.702,729.517 450.702,729.183 446.5,729.5C 446.182,734.032 446.515,738.366 447.5,742.5C 449.027,742.427 450.027,743.094 450.5,744.5C 450.5,747.5 450.5,750.5 450.5,753.5C 450.389,754.117 450.056,754.617 449.5,755C 442.833,755.667 436.167,755.667 429.5,755C 425.696,751.838 425.029,748.338 427.5,744.5C 429.352,743.911 431.185,743.244 433,742.5C 433.826,730.659 433.659,718.993 432.5,707.5C 431.122,706.766 429.622,706.099 428,705.5C 427.802,703.618 427.302,701.952 426.5,700.5C 426.827,695.09 429.493,693.09 434.5,694.5 Z"/></g>
<g><path style="opacity:1" fill="#9d9d9d" d="M 202.5,694.5 C 205.614,694.555 207.948,695.888 209.5,698.5C 206.576,698.102 204.242,696.769 202.5,694.5 Z"/></g>
<g><path style="opacity:0.576" fill="#7b7b7b" d="M 227.5,694.5 C 224.881,694.925 222.547,695.925 220.5,697.5C 220.414,696.504 220.748,695.671 221.5,695C 223,694.5 224.5,694 226,693.5C 226.765,693.57 227.265,693.903 227.5,694.5 Z"/></g>
<g><path style="opacity:0.596" fill="#727272" d="M 183.5,697.5 C 182.5,699.167 181.167,700.5 179.5,701.5C 179.833,699.167 181.167,697.833 183.5,697.5 Z"/></g>
<g><path style="opacity:1" fill="#f3f3f3" d="M 679.5,708.5 C 681.988,710.388 684.988,711.055 688.5,710.5C 689.265,713.096 689.599,715.763 689.5,718.5C 689.5,719.167 689.167,719.5 688.5,719.5C 685.223,719.216 682.057,719.549 679,720.5C 678.333,728.167 678.333,735.833 679,743.5C 679.383,744.056 679.883,744.389 680.5,744.5C 681.267,743.828 681.934,742.995 682.5,742C 682.353,740.026 682.019,738.026 681.5,736C 683.179,732.703 685.846,731.703 689.5,733C 690.252,733.671 690.586,734.504 690.5,735.5C 690.587,740.537 690.254,745.537 689.5,750.5C 687.605,754.991 684.105,756.991 679,756.5C 670.597,755.424 666.43,750.591 666.5,742C 667.645,735.248 667.811,728.414 667,721.5C 664.467,721.05 662.3,720.05 660.5,718.5C 660.401,715.763 660.735,713.096 661.5,710.5C 663.833,710.5 666.167,710.5 668.5,710.5C 668.5,706.5 668.5,702.5 668.5,698.5C 678.153,694.563 681.82,697.896 679.5,708.5 Z"/></g>
<g><path style="opacity:0.903" fill="#b9b9b9" d="M 668.5,698.5 C 668.5,702.5 668.5,706.5 668.5,710.5C 666.167,710.5 663.833,710.5 661.5,710.5C 663.265,709.539 665.265,709.205 667.5,709.5C 667.777,706.552 667.444,703.719 666.5,701C 667.066,700.005 667.733,699.172 668.5,698.5 Z"/></g>
<g><path style="opacity:0.286" fill="#606060" d="M 179.5,701.5 C 179.573,703.027 178.906,704.027 177.5,704.5C 177.427,702.973 178.094,701.973 179.5,701.5 Z"/></g>
<g><path style="opacity:0.816" fill="#838383" d="M 247.5,703.5 C 248.404,704.209 248.737,705.209 248.5,706.5C 247.733,705.828 247.066,704.995 246.5,704C 246.728,703.601 247.062,703.435 247.5,703.5 Z"/></g>
<g><path style="opacity:0.294" fill="#818181" d="M 197.5,706.5 C 195.379,706.325 193.379,706.659 191.5,707.5C 191.97,706.307 192.97,705.64 194.5,705.5C 195.726,705.52 196.726,705.853 197.5,706.5 Z"/></g>
<g><path style="opacity:0.631" fill="#969696" d="M 426.5,700.5 C 427.302,701.952 427.802,703.618 428,705.5C 429.622,706.099 431.122,706.766 432.5,707.5C 428.518,708.422 426.184,706.922 425.5,703C 425.884,702.049 426.217,701.216 426.5,700.5 Z"/></g>
<g><path style="opacity:0.092" fill="#494949" d="M 383.5,705.5 C 384.797,707.693 384.797,710.027 383.5,712.5C 382.893,712.376 382.56,712.043 382.5,711.5C 383.461,709.735 383.795,707.735 383.5,705.5 Z"/></g>
<g><path style="opacity:0.267" fill="#5f5f5f" d="M 505.5,709.5 C 501.007,709.269 496.674,709.936 492.5,711.5C 493.347,710.034 494.68,709.2 496.5,709C 499.696,708.195 502.696,708.362 505.5,709.5 Z"/></g>
<g><path style="opacity:0.341" fill="#616161" d="M 563.5,709.5 C 564.622,708.844 565.955,708.511 567.5,708.5C 569.883,708.361 571.883,709.028 573.5,710.5C 570.214,709.793 566.881,709.46 563.5,709.5 Z"/></g>
<g><path style="opacity:0.239" fill="#5f5f5f" d="M 720.5,710.5 C 715.5,709.167 710.5,709.167 705.5,710.5C 710.5,707.833 715.5,707.833 720.5,710.5 Z"/></g>
<g><path style="opacity:0.505" fill="#929292" d="M 251.5,707.5 C 252.16,708.964 252.493,710.631 252.5,712.5C 252.444,714.64 251.777,716.306 250.5,717.5C 251.414,714.272 251.747,710.939 251.5,707.5 Z"/></g>
<g><path style="opacity:0.2" fill="#545454" d="M 270.5,706.5 C 269.432,707.434 268.099,707.768 266.5,707.5C 266.5,719.167 266.5,730.833 266.5,742.5C 265.505,730.678 265.172,718.678 265.5,706.5C 267.167,706.5 268.833,706.5 270.5,706.5 Z"/></g>
<g><path style="opacity:0.11" fill="#474747" d="M 330.5,710.5 C 325.533,709.962 320.866,710.629 316.5,712.5C 316.414,711.504 316.748,710.671 317.5,710C 322.02,709.186 326.354,709.353 330.5,710.5 Z"/></g>
<g><path style="opacity:0.412" fill="#7f7f7f" d="M 432.5,707.5 C 433.659,718.993 433.826,730.659 433,742.5C 431.185,743.244 429.352,743.911 427.5,744.5C 428.474,742.915 429.974,741.915 432,741.5C 432.5,730.172 432.667,718.838 432.5,707.5 Z"/></g>
<g><path style="opacity:0.898" fill="#d2d2d2" d="M 476.5,695.5 C 480.041,698.95 480.375,702.783 477.5,707C 475.866,707.494 474.199,707.66 472.5,707.5C 472.333,718.838 472.5,730.172 473,741.5C 474.622,742.099 476.122,742.766 477.5,743.5C 475.533,743.739 473.699,743.406 472,742.5C 471.822,731.257 471.322,720.09 470.5,709C 471.67,707.245 473.337,706.245 475.5,706C 475.499,704.601 475.165,703.101 474.5,701.5C 474.977,700.522 475.643,699.689 476.5,699C 475.692,698.692 475.025,698.192 474.5,697.5C 474.846,696.304 475.346,696.304 476,697.5C 476.464,696.906 476.631,696.239 476.5,695.5 Z"/></g>
<g><path style="opacity:1" fill="#ebebeb" d="M 563.5,709.5 C 566.881,709.46 570.214,709.793 573.5,710.5C 575.017,710.511 576.184,711.177 577,712.5C 578.562,714.957 579.562,717.624 580,720.5C 580.5,728.493 580.666,736.493 580.5,744.5C 586.63,745.601 587.963,748.934 584.5,754.5C 578.528,755.664 572.528,755.83 566.5,755C 564.496,752.159 563.996,748.993 565,745.5C 565.708,744.619 566.542,743.953 567.5,743.5C 568.654,737.013 568.821,730.346 568,723.5C 567.617,722.944 567.117,722.611 566.5,722.5C 563.839,720.133 561.839,720.8 560.5,724.5C 559.167,730.833 559.167,737.167 560.5,743.5C 562.609,745.122 563.609,747.288 563.5,750C 563.693,752.008 563.026,753.508 561.5,754.5C 555.942,754.999 550.608,754.333 545.5,752.5C 545.5,751.5 545.5,750.5 545.5,749.5C 545.5,748.833 545.5,748.167 545.5,747.5C 545.5,747.167 545.5,746.833 545.5,746.5C 546.458,746.047 547.292,745.381 548,744.5C 548.821,737.321 548.655,730.321 547.5,723.5C 546.21,721.86 544.543,721.36 542.5,722C 541.789,724.796 541.122,727.63 540.5,730.5C 541.806,734.365 541.806,738.198 540.5,742C 541.758,743.741 542.758,745.574 543.5,747.5C 543.5,748.5 543.5,749.5 543.5,750.5C 543.714,752.144 543.38,753.644 542.5,755C 536.5,755.667 530.5,755.667 524.5,755C 522.307,751.962 521.973,748.796 523.5,745.5C 525.467,745.739 527.301,745.406 529,744.5C 529.167,740.5 529.333,736.5 529.5,732.5C 529.491,728.107 528.824,724.107 527.5,720.5C 525.901,720.768 524.568,720.434 523.5,719.5C 523.5,716.833 523.5,714.167 523.5,711.5C 523.611,710.883 523.944,710.383 524.5,710C 529.167,709.333 533.833,709.333 538.5,710C 539,710.5 539.5,711 540,711.5C 546.22,707.146 551.887,707.813 557,713.5C 558.638,711.266 560.805,709.933 563.5,709.5 Z M 547.5,723.5 C 548.06,731.401 547.393,739.068 545.5,746.5C 545.5,746.833 545.5,747.167 545.5,747.5C 544.833,747.5 544.167,747.5 543.5,747.5C 542.758,745.574 541.758,743.741 540.5,742C 541.806,738.198 541.806,734.365 540.5,730.5C 541.122,727.63 541.789,724.796 542.5,722C 544.543,721.36 546.21,721.86 547.5,723.5 Z"/></g>
<g><path style="opacity:0.418" fill="#6e6e6e" d="M 679.5,708.5 C 682.61,709.088 685.61,709.755 688.5,710.5C 684.988,711.055 681.988,710.388 679.5,708.5 Z"/></g>
<g><path style="opacity:1" fill="#ececec" d="M 720.5,710.5 C 724.485,712.321 727.319,715.321 729,719.5C 732.607,730.651 731.44,741.318 725.5,751.5C 724.25,751.423 723.417,750.756 723,749.5C 722.648,751.247 722.148,752.914 721.5,754.5C 716.547,755.329 711.547,755.663 706.5,755.5C 700.745,753.572 697.245,749.572 696,743.5C 693.762,734.966 694.262,726.633 697.5,718.5C 698.906,718.027 699.573,717.027 699.5,715.5C 700.911,713.086 702.911,711.419 705.5,710.5C 710.5,709.167 715.5,709.167 720.5,710.5 Z M 711.5,720.5 C 713.39,720.297 714.89,720.963 716,722.5C 718.159,729.592 717.992,736.592 715.5,743.5C 712.546,745.147 710.38,744.481 709,741.5C 706.454,733.966 707.287,726.966 711.5,720.5 Z"/></g>
<g><path style="opacity:0.788" fill="#8d8d8d" d="M 762.5,710.5 C 759.833,710.5 757.167,710.5 754.5,710.5C 757.214,708.028 759.881,708.028 762.5,710.5 Z"/></g>
<g><path style="opacity:1" fill="#bbbbbb" d="M 794.5,710.5 C 790.486,710.334 786.486,710.501 782.5,711C 781.382,712.074 780.382,713.24 779.5,714.5C 778.583,713.873 777.583,713.539 776.5,713.5C 781.839,708.388 787.839,707.388 794.5,710.5 Z"/></g>
<g><path style="opacity:1" fill="#eaeaea" d="M 288.5,727.5 C 280.905,727.735 277.738,724.068 279,716.5C 282.121,710.854 286.955,708.187 293.5,708.5C 300.607,708.124 305.441,711.124 308,717.5C 308.333,726.167 308.667,734.833 309,743.5C 315.807,746.585 316.307,750.752 310.5,756C 306.291,757.189 302.624,756.356 299.5,753.5C 281.705,760.198 274.205,754.198 277,735.5C 279.772,731.206 283.605,728.539 288.5,727.5 Z M 288.5,727.5 C 289.172,726.733 290.005,726.066 291,725.5C 291.191,723.292 291.691,721.292 292.5,719.5C 293.251,718.427 294.251,718.26 295.5,719C 295.167,719.333 294.833,719.667 294.5,720C 296.283,721.067 296.783,722.567 296,724.5C 293.874,726.377 291.374,727.377 288.5,727.5 Z M 294.5,736.5 C 295.586,736.62 296.253,737.287 296.5,738.5C 296,740.5 295.5,742.5 295,744.5C 293.644,745.38 292.144,745.714 290.5,745.5C 288.901,744.201 288.401,742.535 289,740.5C 290.456,738.535 292.29,737.201 294.5,736.5 Z"/></g>
<g><path style="opacity:1" fill="#e9e9e9" d="M 358.5,745.5 C 358.5,748.167 358.5,750.833 358.5,753.5C 358.389,754.117 358.056,754.617 357.5,755C 351.833,755.667 346.167,755.667 340.5,755C 340,754.5 339.5,754 339,753.5C 340.867,747.534 341.7,741.201 341.5,734.5C 341.333,731.167 341.167,727.833 341,724.5C 339.435,721.106 337.435,720.772 335,723.5C 334.333,730.5 334.333,737.5 335,744.5C 338.162,747.776 338.328,751.109 335.5,754.5C 329.108,754.751 322.775,754.418 316.5,753.5C 314,747.974 315.667,744.974 321.5,744.5C 322.656,736.677 322.823,728.677 322,720.5C 320.301,719.594 318.467,719.261 316.5,719.5C 315.167,717.167 315.167,714.833 316.5,712.5C 320.866,710.629 325.533,709.962 330.5,710.5C 331.151,711.091 331.818,711.757 332.5,712.5C 338.631,707.201 344.798,707.201 351,712.5C 352.846,715.569 353.846,718.902 354,722.5C 354.5,729.826 354.666,737.159 354.5,744.5C 356.099,744.232 357.432,744.566 358.5,745.5 Z"/></g>
<g><path style="opacity:1" fill="#eaeaea" d="M 505.5,709.5 C 509.565,709.897 512.565,711.897 514.5,715.5C 514.427,717.027 515.094,718.027 516.5,718.5C 516.5,718.833 516.5,719.167 516.5,719.5C 517.82,727.95 517.82,736.617 516.5,745.5C 514.859,752.304 510.526,756.138 503.5,757C 493.323,757.827 486.823,753.327 484,743.5C 481.561,733.786 482.561,724.453 487,715.5C 488.451,713.536 490.284,712.203 492.5,711.5C 496.674,709.936 501.007,709.269 505.5,709.5 Z M 505.5,741.5 C 504.094,741.973 503.427,742.973 503.5,744.5C 501.833,744.5 500.167,744.5 498.5,744.5C 498.573,742.973 497.906,741.973 496.5,741.5C 495.114,735.804 495.28,730.138 497,724.5C 499.667,719.167 502.333,719.167 505,724.5C 506.424,730.097 506.59,735.764 505.5,741.5 Z"/></g>
<g><path style="opacity:1" fill="#eeeeee" d="M 621.5,725.5 C 621.384,728.86 621.051,732.193 620.5,735.5C 613.833,735.5 607.167,735.5 600.5,735.5C 599.848,736.449 599.514,737.615 599.5,739C 599.307,741.008 599.974,742.508 601.5,743.5C 603.126,745.243 605.126,745.743 607.5,745C 609.353,742.96 610.686,740.627 611.5,738C 614.993,736.996 618.159,737.496 621,739.5C 623.126,747.585 620.293,752.918 612.5,755.5C 607.463,755.587 602.463,755.254 597.5,754.5C 592.988,752.653 590.321,749.32 589.5,744.5C 588.74,738.196 588.407,731.863 588.5,725.5C 591.456,710.521 600.122,705.687 614.5,711C 619.384,714.602 621.718,719.435 621.5,725.5 Z M 606.5,719.5 C 607.74,720.973 608.74,722.64 609.5,724.5C 606.572,725.484 603.572,725.817 600.5,725.5C 600.867,721.799 602.867,719.799 606.5,719.5 Z"/></g>
<g><path style="opacity:1" fill="#e7e7e7" d="M 627.5,753.5 C 627.5,748.5 627.5,743.5 627.5,738.5C 627.611,737.883 627.944,737.383 628.5,737C 630.473,736.505 632.473,736.338 634.5,736.5C 627.827,731.933 625.661,725.599 628,717.5C 632.73,708.536 639.564,706.536 648.5,711.5C 655.589,707.414 658.589,709.414 657.5,717.5C 658.966,724.703 656.299,727.37 649.5,725.5C 647.99,723.491 646.323,721.658 644.5,720C 639.411,719.275 638.411,720.942 641.5,725C 658.496,727.158 663.329,735.991 656,751.5C 649.726,757.326 642.892,757.993 635.5,753.5C 633.941,754.447 632.274,755.113 630.5,755.5C 628.962,755.547 627.962,754.88 627.5,753.5 Z M 634.5,736.5 C 637.865,737.14 641.198,737.974 644.5,739C 647.341,743.514 646.007,745.514 640.5,745C 638.121,742.401 636.121,739.567 634.5,736.5 Z"/></g>
<g><path style="opacity:1" fill="#f2f2f2" d="M 754.5,710.5 C 757.167,710.5 759.833,710.5 762.5,710.5C 762.833,710.5 763.167,710.5 763.5,710.5C 763.427,712.027 764.094,713.027 765.5,713.5C 766.997,715.29 767.664,717.456 767.5,720C 767.894,723.168 766.894,725.668 764.5,727.5C 762.621,728.341 760.621,728.675 758.5,728.5C 757.167,728.5 756.5,727.833 756.5,726.5C 756.799,724.396 756.466,722.396 755.5,720.5C 754.702,720.957 754.369,721.624 754.5,722.5C 753.935,724.952 753.268,727.285 752.5,729.5C 751.352,733.981 751.185,738.648 752,743.5C 753.026,746.693 755.192,748.026 758.5,747.5C 758.5,749.5 758.5,751.5 758.5,753.5C 758.5,754.167 758.167,754.5 757.5,754.5C 750.11,754.764 742.777,754.43 735.5,753.5C 735.337,751.143 735.503,748.81 736,746.5C 738.026,746.085 739.526,745.085 740.5,743.5C 740.666,736.159 740.5,728.826 740,721.5C 739,720.167 738,720.167 737,721.5C 736.283,720.956 735.783,720.289 735.5,719.5C 735.5,716.833 735.5,714.167 735.5,711.5C 735.611,710.883 735.944,710.383 736.5,710C 740.833,709.333 745.167,709.333 749.5,710C 750.126,710.75 750.626,711.584 751,712.5C 751.816,711.177 752.983,710.511 754.5,710.5 Z"/></g>
<g><path style="opacity:1" fill="#eeeeee" d="M 794.5,710.5 C 798.485,712.321 801.319,715.321 803,719.5C 804.418,724.428 804.751,729.428 804,734.5C 796.921,735.48 789.755,735.813 782.5,735.5C 781.971,739.192 782.971,742.358 785.5,745C 787.167,745.667 788.833,745.667 790.5,745C 791.568,742.562 792.902,740.395 794.5,738.5C 796.833,738.5 799.167,738.5 801.5,738.5C 802.167,738.5 802.5,738.833 802.5,739.5C 802.5,742.5 802.5,745.5 802.5,748.5C 801.92,750.749 800.587,752.415 798.5,753.5C 796.847,753.66 795.514,754.326 794.5,755.5C 790.267,756.794 785.934,756.794 781.5,755.5C 781.027,754.094 780.027,753.427 778.5,753.5C 775.448,752.12 773.282,749.786 772,746.5C 768.785,737.517 768.785,728.517 772,719.5C 772.792,716.894 774.292,714.894 776.5,713.5C 777.583,713.539 778.583,713.873 779.5,714.5C 780.382,713.24 781.382,712.074 782.5,711C 786.486,710.501 790.486,710.334 794.5,710.5 Z M 790.5,721.5 C 791.234,722.708 791.567,724.041 791.5,725.5C 788.833,725.5 786.167,725.5 783.5,725.5C 783.5,724.5 783.5,723.5 783.5,722.5C 785.572,719.266 787.905,718.933 790.5,721.5 Z"/></g>
<g><path style="opacity:0.514" fill="#868686" d="M 191.5,707.5 C 192.497,710.328 192.497,712.995 191.5,715.5C 190.742,712.648 190.742,709.981 191.5,707.5 Z"/></g>
<g><path style="opacity:0.651" fill="#737373" d="M 763.5,710.5 C 764.906,710.973 765.573,711.973 765.5,713.5C 764.094,713.027 763.427,712.027 763.5,710.5 Z"/></g>
<g><path style="opacity:0.412" fill="#6f6f6f" d="M 661.5,710.5 C 660.735,713.096 660.401,715.763 660.5,718.5C 659.848,717.551 659.514,716.385 659.5,715C 659.307,712.992 659.974,711.492 661.5,710.5 Z"/></g>
<g><path style="opacity:0.753" fill="#909090" d="M 523.5,711.5 C 523.5,714.167 523.5,716.833 523.5,719.5C 521.286,716.711 521.286,714.044 523.5,711.5 Z"/></g>
<g><path style="opacity:0.376" fill="#6c6c6c" d="M 688.5,710.5 C 690.026,711.492 690.693,712.992 690.5,715C 690.486,716.385 690.152,717.551 689.5,718.5C 689.599,715.763 689.265,713.096 688.5,710.5 Z"/></g>
<g><path style="opacity:1" fill="#959595" d="M 735.5,711.5 C 735.5,714.167 735.5,716.833 735.5,719.5C 733.028,716.786 733.028,714.119 735.5,711.5 Z"/></g>
<g><path style="opacity:0.357" fill="#686868" d="M 514.5,715.5 C 515.906,715.973 516.573,716.973 516.5,718.5C 515.094,718.027 514.427,717.027 514.5,715.5 Z"/></g>
<g><path style="opacity:0.314" fill="#646464" d="M 699.5,715.5 C 699.573,717.027 698.906,718.027 697.5,718.5C 697.427,716.973 698.094,715.973 699.5,715.5 Z"/></g>
<g><path style="opacity:0.747" fill="#ababab" d="M 688.5,719.5 C 685.772,720.205 682.939,720.872 680,721.5C 679.233,729.215 679.4,736.882 680.5,744.5C 679.883,744.389 679.383,744.056 679,743.5C 678.333,735.833 678.333,728.167 679,720.5C 682.057,719.549 685.223,719.216 688.5,719.5 Z"/></g>
<g><path style="opacity:0.91" fill="#a5a5a5" d="M 756.5,726.5 C 755.833,725.167 755.167,723.833 754.5,722.5C 754.369,721.624 754.702,720.957 755.5,720.5C 756.466,722.396 756.799,724.396 756.5,726.5 Z"/></g>
<g><path style="opacity:0.396" fill="#828282" d="M 316.5,719.5 C 318.467,719.261 320.301,719.594 322,720.5C 322.823,728.677 322.656,736.677 321.5,744.5C 321.666,736.826 321.5,729.159 321,721.5C 319.378,720.901 317.878,720.234 316.5,719.5 Z"/></g>
<g><path style="opacity:0.616" fill="#7f7f7f" d="M 606.5,719.5 C 609.59,720.665 610.924,722.998 610.5,726.5C 606.958,726.813 603.625,726.479 600.5,725.5C 603.572,725.817 606.572,725.484 609.5,724.5C 608.74,722.64 607.74,720.973 606.5,719.5 Z"/></g>
<g><path style="opacity:0.173" fill="#565656" d="M 790.5,721.5 C 792.256,722.552 792.923,724.219 792.5,726.5C 789.167,726.5 785.833,726.5 782.5,726.5C 782.232,724.901 782.566,723.568 783.5,722.5C 783.5,723.5 783.5,724.5 783.5,725.5C 786.167,725.5 788.833,725.5 791.5,725.5C 791.567,724.041 791.234,722.708 790.5,721.5 Z"/></g>
<g><path style="opacity:0.549" fill="#686868" d="M 764.5,727.5 C 762.747,730.436 760.747,730.769 758.5,728.5C 760.621,728.675 762.621,728.341 764.5,727.5 Z"/></g>
<g><path style="opacity:0.977" fill="#b1b1b1" d="M 516.5,719.5 C 518.092,723.391 519.092,727.557 519.5,732C 519.104,736.772 518.104,741.272 516.5,745.5C 517.82,736.617 517.82,727.95 516.5,719.5 Z"/></g>
<g><path style="opacity:0.134" fill="#454545" d="M 547.5,723.5 C 548.655,730.321 548.821,737.321 548,744.5C 547.292,745.381 546.458,746.047 545.5,746.5C 547.393,739.068 548.06,731.401 547.5,723.5 Z"/></g>
<g><path style="opacity:0.051" fill="#505050" d="M 374.5,725.5 C 374.267,730.895 374.6,736.228 375.5,741.5C 374.883,741.389 374.383,741.056 374,740.5C 373.184,735.316 373.35,730.316 374.5,725.5 Z"/></g>
<g><path style="opacity:0.631" fill="#8f8f8f" d="M 588.5,725.5 C 588.407,731.863 588.74,738.196 589.5,744.5C 587.961,741.135 587.294,737.469 587.5,733.5C 587.503,730.645 587.836,727.978 588.5,725.5 Z"/></g>
<g><path style="opacity:0.898" fill="#838383" d="M 621.5,725.5 C 622.865,728.959 622.531,732.292 620.5,735.5C 621.051,732.193 621.384,728.86 621.5,725.5 Z"/></g>
<g><path style="opacity:0.322" fill="#5d5d5d" d="M 251.5,730.5 C 247.833,730.5 244.167,730.5 240.5,730.5C 240.5,734.5 240.5,738.5 240.5,742.5C 239.515,738.366 239.182,734.032 239.5,729.5C 243.702,729.183 247.702,729.517 251.5,730.5 Z"/></g>
<g><path style="opacity:0.486" fill="#848484" d="M 251.5,730.5 C 252.645,734.311 252.812,738.311 252,742.5C 250.385,743.386 248.885,744.386 247.5,745.5C 247.762,743.436 248.929,742.103 251,741.5C 251.499,737.848 251.665,734.182 251.5,730.5 Z"/></g>
<g><path style="opacity:0.09" fill="#393939" d="M 458.5,730.5 C 458.5,730.833 458.5,731.167 458.5,731.5C 454.936,730.577 451.269,730.244 447.5,730.5C 447.5,734.5 447.5,738.5 447.5,742.5C 446.515,738.366 446.182,734.032 446.5,729.5C 450.702,729.183 454.702,729.517 458.5,730.5 Z"/></g>
<g><path style="opacity:0.78" fill="#bababa" d="M 458.5,730.5 C 459.645,734.311 459.812,738.311 459,742.5C 457.67,743.582 456.17,744.249 454.5,744.5C 455.315,743.163 456.482,742.163 458,741.5C 458.498,738.183 458.665,734.85 458.5,731.5C 458.5,731.167 458.5,730.833 458.5,730.5 Z"/></g>
<g><path style="opacity:0.714" fill="#afafaf" d="M 527.5,720.5 C 528.824,724.107 529.491,728.107 529.5,732.5C 529.333,736.5 529.167,740.5 529,744.5C 527.301,745.406 525.467,745.739 523.5,745.5C 524.878,744.766 526.378,744.099 528,743.5C 528.798,735.754 528.631,728.087 527.5,720.5 Z"/></g>
<g><path style="opacity:0.486" fill="#858585" d="M 560.5,724.5 C 560.603,731.044 560.603,737.377 560.5,743.5C 559.167,737.167 559.167,730.833 560.5,724.5 Z"/></g>
<g><path style="opacity:0.424" fill="#807f82" d="M 566.5,722.5 C 567.117,722.611 567.617,722.944 568,723.5C 568.821,730.346 568.654,737.013 567.5,743.5C 567.76,736.443 567.427,729.443 566.5,722.5 Z"/></g>
<g><path style="opacity:0.157" fill="#575757" d="M 600.5,735.5 C 600.401,738.237 600.735,740.904 601.5,743.5C 599.974,742.508 599.307,741.008 599.5,739C 599.514,737.615 599.848,736.449 600.5,735.5 Z"/></g>
<g><path style="opacity:0.678" fill="#898989" d="M 801.5,738.5 C 799.167,738.5 796.833,738.5 794.5,738.5C 796.627,736.574 798.96,736.574 801.5,738.5 Z"/></g>
<g><path style="opacity:0.329" fill="#6c6c6c" d="M 690.5,735.5 C 691.162,737.304 691.495,739.304 691.5,741.5C 691.657,744.814 690.991,747.814 689.5,750.5C 690.254,745.537 690.587,740.537 690.5,735.5 Z"/></g>
<g><path style="opacity:0.624" fill="#6c6c6c" d="M 505.5,741.5 C 505.573,743.027 504.906,744.027 503.5,744.5C 503.427,742.973 504.094,741.973 505.5,741.5 Z"/></g>
<g><path style="opacity:0.898" fill="#a2a2a2" d="M 802.5,739.5 C 804.88,742.447 804.88,745.447 802.5,748.5C 802.5,745.5 802.5,742.5 802.5,739.5 Z"/></g>
<g><path style="opacity:0.506" fill="#707070" d="M 496.5,741.5 C 497.906,741.973 498.573,742.973 498.5,744.5C 497.094,744.027 496.427,743.027 496.5,741.5 Z"/></g>
<g><path style="opacity:0.384" fill="#7a7a7a" d="M 740.5,743.5 C 739.526,745.085 738.026,746.085 736,746.5C 735.503,748.81 735.337,751.143 735.5,753.5C 734.366,751.034 734.199,748.367 735,745.5C 736.815,744.756 738.648,744.089 740.5,743.5 Z"/></g>
<g><path style="opacity:0.875" fill="#a1a1a1" d="M 294.5,736.5 C 295.209,735.596 296.209,735.263 297.5,735.5C 297.699,738.941 297.199,742.274 296,745.5C 294.057,746.807 292.223,746.807 290.5,745.5C 292.144,745.714 293.644,745.38 295,744.5C 295.5,742.5 296,740.5 296.5,738.5C 296.253,737.287 295.586,736.62 294.5,736.5 Z"/></g>
<g><path style="opacity:1" fill="#bbbbbb" d="M 752.5,729.5 C 752.334,733.846 752.501,738.179 753,742.5C 754.884,743.977 756.884,745.31 759,746.5C 759.796,749.039 759.629,751.372 758.5,753.5C 758.5,751.5 758.5,749.5 758.5,747.5C 755.192,748.026 753.026,746.693 752,743.5C 751.185,738.648 751.352,733.981 752.5,729.5 Z"/></g>
<g><path style="opacity:0.596" fill="#6e6e6e" d="M 450.5,744.5 C 452.433,747.322 452.433,750.322 450.5,753.5C 450.5,750.5 450.5,747.5 450.5,744.5 Z"/></g>
<g><path style="opacity:0.122" fill="#333333" d="M 543.5,747.5 C 544.167,747.5 544.833,747.5 545.5,747.5C 545.5,748.167 545.5,748.833 545.5,749.5C 544.833,749.833 544.167,750.167 543.5,750.5C 543.5,749.5 543.5,748.5 543.5,747.5 Z"/></g>
<g><path style="opacity:0.651" fill="#7b7b7b" d="M 220.5,744.5 C 220.5,747.167 220.5,749.833 220.5,752.5C 218.395,749.951 218.395,747.285 220.5,744.5 Z"/></g>
<g><path style="opacity:0.753" fill="#868686" d="M 358.5,745.5 C 360.972,748.119 360.972,750.786 358.5,753.5C 358.5,750.833 358.5,748.167 358.5,745.5 Z"/></g>
<g><path style="opacity:1" fill="#999999" d="M 478.5,745.5 C 480.09,748.944 479.424,751.944 476.5,754.5C 477.406,751.564 478.072,748.564 478.5,745.5 Z"/></g>
<g><path style="opacity:0.741" fill="#8f8f8f" d="M 627.5,738.5 C 627.5,743.5 627.5,748.5 627.5,753.5C 626.522,753.189 625.855,752.522 625.5,751.5C 626.114,747.033 626.78,742.7 627.5,738.5 Z"/></g>
<g><path style="opacity:1" fill="#979797" d="M 725.5,751.5 C 724.738,753.262 723.404,754.262 721.5,754.5C 722.148,752.914 722.648,751.247 723,749.5C 723.417,750.756 724.25,751.423 725.5,751.5 Z"/></g>
<g><path style="opacity:1" fill="#a0a0a0" d="M 401.5,746.5 C 402.152,747.449 402.486,748.615 402.5,750C 402.693,752.008 402.026,753.508 400.5,754.5C 400.833,751.833 401.167,749.167 401.5,746.5 Z"/></g>
<g><path style="opacity:0.514" fill="#7d7d7d" d="M 247.5,753.5 C 254.777,754.43 262.11,754.764 269.5,754.5C 262.679,755.655 255.679,755.821 248.5,755C 247.944,754.617 247.611,754.117 247.5,753.5 Z"/></g>
<g><path style="opacity:0.531" fill="#848484" d="M 316.5,753.5 C 322.775,754.418 329.108,754.751 335.5,754.5C 329.681,755.653 323.681,755.819 317.5,755C 316.944,754.617 316.611,754.117 316.5,753.5 Z"/></g>
<g><path style="opacity:0.424" fill="#6c6c6c" d="M 367.5,753.5 C 369.027,753.427 370.027,754.094 370.5,755.5C 368.973,755.573 367.973,754.906 367.5,753.5 Z"/></g>
<g><path style="opacity:0.659" fill="#7f7f7f" d="M 454.5,753.5 C 461.777,754.43 469.11,754.764 476.5,754.5C 469.679,755.655 462.679,755.821 455.5,755C 454.944,754.617 454.611,754.117 454.5,753.5 Z"/></g>
<g><path style="opacity:0.569" fill="#8b8b8b" d="M 545.5,752.5 C 550.608,754.333 555.942,754.999 561.5,754.5C 556.684,755.65 551.684,755.816 546.5,755C 545.748,754.329 545.414,753.496 545.5,752.5 Z"/></g>
<g><path style="opacity:0.322" fill="#7b7b7b" d="M 735.5,753.5 C 742.777,754.43 750.11,754.764 757.5,754.5C 750.679,755.655 743.679,755.821 736.5,755C 735.944,754.617 735.611,754.117 735.5,753.5 Z"/></g>
<g><path style="opacity:0.459" fill="#7a7a7a" d="M 778.5,753.5 C 780.027,753.427 781.027,754.094 781.5,755.5C 779.973,755.573 778.973,754.906 778.5,753.5 Z"/></g>
<g><path style="opacity:0.329" fill="#696969" d="M 798.5,753.5 C 797.713,755.104 796.38,755.771 794.5,755.5C 795.514,754.326 796.847,753.66 798.5,753.5 Z"/></g>
<g><path style="opacity:0.469" fill="#6f6f6f" d="M 179.5,754.5 C 182.43,755.299 185.43,755.632 188.5,755.5C 186.034,756.634 183.367,756.801 180.5,756C 179.944,755.617 179.611,755.117 179.5,754.5 Z"/></g>
<g><path style="opacity:0.624" fill="#8a8a8a" d="M 197.5,753.5 C 199.544,754.508 201.544,755.508 203.5,756.5C 200.687,756.975 198.687,755.975 197.5,753.5 Z"/></g>
<g><path style="opacity:0.8" fill="#8c8c8c" d="M 370.5,755.5 C 373.833,755.5 377.167,755.5 380.5,755.5C 379.003,756.306 377.336,756.972 375.5,757.5C 373.664,756.972 371.997,756.306 370.5,755.5 Z"/></g>
<g><path style="opacity:0.576" fill="#878787" d="M 597.5,754.5 C 602.463,755.254 607.463,755.587 612.5,755.5C 610.696,756.162 608.696,756.495 606.5,756.5C 603.186,756.657 600.186,755.991 597.5,754.5 Z"/></g>
<g><path style="opacity:0.908" fill="#898989" d="M 721.5,754.5 C 716.628,757.644 711.628,757.977 706.5,755.5C 711.547,755.663 716.547,755.329 721.5,754.5 Z"/></g>
</svg>
