<?xml version="1.0" encoding="UTF-8"?>
<!DOCTYPE svg PUBLIC "-//W3C//DTD SVG 1.1//EN" "http://www.w3.org/Graphics/SVG/1.1/DTD/svg11.dtd">
<svg xmlns="http://www.w3.org/2000/svg" version="1.1" width="1066px" height="1066px" viewBox="0 0 1066.000000 1066.000000" xmlns:xlink="http://www.w3.org/1999/xlink">
<g><path style="opacity:0.039" fill="#fff" d="M 650.5,194.5 C 654.311,193.355 658.311,193.188 662.5,194C 658.514,194.499 654.514,194.666 650.5,194.5 Z"/></g>
<g><path style="opacity:1" fill="#fff" d="M 725.5,214.5 C 722.258,221.327 719.258,228.327 716.5,235.5C 714.479,238.841 712.146,241.841 709.5,244.5C 705.544,246.788 702.211,249.788 699.5,253.5C 699.5,254.167 699.167,254.5 698.5,254.5C 698.44,253.957 698.107,253.624 697.5,253.5C 695.941,254.447 694.274,255.113 692.5,255.5C 690.269,256.309 688.602,257.643 687.5,259.5C 686.833,259.5 686.167,259.5 685.5,259.5C 681.435,258.807 677.268,258.14 673,257.5C 672.536,258.094 672.369,258.761 672.5,259.5C 671.833,259.5 671.167,259.5 670.5,259.5C 663.762,255.945 656.762,252.445 649.5,249C 643.302,244.737 636.969,240.737 630.5,237C 626.182,234.735 621.849,234.235 617.5,235.5C 616.065,236.096 614.398,236.096 612.5,235.5C 604.556,234.138 598.556,237.138 594.5,244.5C 594.573,246.027 593.906,247.027 592.5,247.5C 590.273,248.401 589.273,250.067 589.5,252.5C 587.06,255.72 585.393,259.387 584.5,263.5C 584.768,265.099 584.434,266.432 583.5,267.5C 582.859,269.042 581.859,270.376 580.5,271.5C 577.273,270.091 573.94,269.091 570.5,268.5C 569.07,268.579 567.736,268.246 566.5,267.5C 565.197,264.355 565.197,261.355 566.5,258.5C 569.766,249.713 573.433,241.046 577.5,232.5C 580.96,228.945 583.96,224.945 586.5,220.5C 589.792,218.542 592.792,216.209 595.5,213.5C 611.255,207.558 626.588,208.558 641.5,216.5C 648.354,221.18 655.354,225.68 662.5,230C 665.633,230.96 668.8,231.793 672,232.5C 673.03,232.164 673.53,231.497 673.5,230.5C 673.833,230.5 674.167,230.5 674.5,230.5C 674.874,232.95 676.374,233.95 679,233.5C 681.626,233.95 683.126,232.95 683.5,230.5C 683.833,230.5 684.167,230.5 684.5,230.5C 684.369,231.376 684.702,232.043 685.5,232.5C 687.5,231.833 689.5,231.167 691.5,230.5C 692.298,230.043 692.631,229.376 692.5,228.5C 699.524,224.508 704.191,218.508 706.5,210.5C 706.5,210.167 706.5,209.833 706.5,209.5C 708.834,207.824 709.834,205.491 709.5,202.5C 710.641,200.333 711.641,198 712.5,195.5C 717.446,197.481 722.446,199.147 727.5,200.5C 727.154,205.216 726.487,209.883 725.5,214.5 Z"/></g>
<g><path style="opacity:0.267" fill="#fff" d="M 725.5,214.5 C 726.487,209.883 727.154,205.216 727.5,200.5C 722.446,199.147 717.446,197.481 712.5,195.5C 711.641,198 710.641,200.333 709.5,202.5C 709.963,199.518 710.296,196.518 710.5,193.5C 716.374,194.725 722.041,196.725 727.5,199.5C 728.659,203.122 728.825,206.789 728,210.5C 727.8,212.32 726.966,213.653 725.5,214.5 Z"/></g>
<g><path style="opacity:0.133" fill="#fff" d="M 709.5,202.5 C 709.834,205.491 708.834,207.824 706.5,209.5C 707.264,206.982 708.264,204.649 709.5,202.5 Z"/></g>
<g><path style="opacity:0.855" fill="#fff" d="M 641.5,214.5 C 641.5,215.167 641.5,215.833 641.5,216.5C 626.588,208.558 611.255,207.558 595.5,213.5C 595.369,212.624 595.702,211.957 596.5,211.5C 605.907,207.239 615.573,206.072 625.5,208C 630.976,209.866 636.309,212.033 641.5,214.5 Z"/></g>
<g><path style="opacity:0.086" fill="#fff" d="M 595.5,213.5 C 592.792,216.209 589.792,218.542 586.5,220.5C 588.279,216.733 591.279,214.4 595.5,213.5 Z"/></g>
<g><path style="opacity:0.306" fill="#fff" d="M 706.5,210.5 C 704.191,218.508 699.524,224.508 692.5,228.5C 693.382,226.616 694.882,225.283 697,224.5C 700.421,219.929 703.588,215.263 706.5,210.5 Z"/></g>
<g><path style="opacity:0.306" fill="#fff" d="M 641.5,214.5 C 649.025,220.097 657.025,224.93 665.5,229C 668.117,229.822 670.784,230.322 673.5,230.5C 673.53,231.497 673.03,232.164 672,232.5C 668.8,231.793 665.633,230.96 662.5,230C 655.354,225.68 648.354,221.18 641.5,216.5C 641.5,215.833 641.5,215.167 641.5,214.5 Z"/></g>
<g><path style="opacity:0.263" fill="#fff" d="M 725.5,214.5 C 723.83,222.208 720.83,229.208 716.5,235.5C 719.258,228.327 722.258,221.327 725.5,214.5 Z"/></g>
<g><path style="opacity:0.227" fill="#fff" d="M 586.5,220.5 C 583.96,224.945 580.96,228.945 577.5,232.5C 579,227.339 582,223.339 586.5,220.5 Z"/></g>
<g><path style="opacity:0.243" fill="#fff" d="M 692.5,228.5 C 692.631,229.376 692.298,230.043 691.5,230.5C 689.5,231.167 687.5,231.833 685.5,232.5C 684.702,232.043 684.369,231.376 684.5,230.5C 687.221,230.037 689.888,229.371 692.5,228.5 Z"/></g>
<g><path style="opacity:0.433" fill="#fff" d="M 674.5,230.5 C 675.893,231.26 677.393,231.926 679,232.5C 680.607,231.926 682.107,231.26 683.5,230.5C 683.126,232.95 681.626,233.95 679,233.5C 676.374,233.95 674.874,232.95 674.5,230.5 Z"/></g>
<g><path style="opacity:0.275" fill="#fff" d="M 612.5,235.5 C 610.199,236.06 607.866,236.56 605.5,237C 601.643,239.38 597.977,241.88 594.5,244.5C 598.556,237.138 604.556,234.138 612.5,235.5 Z"/></g>
<g><path style="opacity:0.122" fill="#fff" d="M 617.5,235.5 C 621.849,234.235 626.182,234.735 630.5,237C 636.969,240.737 643.302,244.737 649.5,249C 656.762,252.445 663.762,255.945 670.5,259.5C 663.231,257.354 656.231,254.521 649.5,251C 640.259,242.879 629.592,237.713 617.5,235.5 Z"/></g>
<g><path style="opacity:0.682" fill="#fff" d="M 577.5,232.5 C 573.433,241.046 569.766,249.713 566.5,258.5C 567.712,252.323 569.545,246.323 572,240.5C 573.116,237.244 574.949,234.578 577.5,232.5 Z"/></g>
<g><path style="opacity:0.176" fill="#fff" d="M 592.5,247.5 C 592.25,249.674 591.25,251.341 589.5,252.5C 589.273,250.067 590.273,248.401 592.5,247.5 Z"/></g>
<g><path style="opacity:0.102" fill="#fff" d="M 709.5,244.5 C 708.972,245.721 708.305,246.887 707.5,248C 705.251,250.412 702.584,252.245 699.5,253.5C 702.211,249.788 705.544,246.788 709.5,244.5 Z"/></g>
<g><path style="opacity:0.357" fill="#fff" d="M 685.5,259.5 C 681.167,260.833 676.833,260.833 672.5,259.5C 672.369,258.761 672.536,258.094 673,257.5C 677.268,258.14 681.435,258.807 685.5,259.5 Z"/></g>
<g><path style="opacity:0.004" fill="#fff" d="M 698.5,254.5 C 695.286,256.937 691.619,258.604 687.5,259.5C 688.602,257.643 690.269,256.309 692.5,255.5C 694.274,255.113 695.941,254.447 697.5,253.5C 698.107,253.624 698.44,253.957 698.5,254.5 Z"/></g>
<g><path style="opacity:0.024" fill="#fff" d="M 589.5,252.5 C 589.154,256.852 587.488,260.519 584.5,263.5C 585.393,259.387 587.06,255.72 589.5,252.5 Z"/></g>
<g><path style="opacity:0.376" fill="#fff" d="M 583.5,267.5 C 584.17,270.59 583.003,272.257 580,272.5C 576.27,271.995 573.103,270.662 570.5,268.5C 573.94,269.091 577.273,270.091 580.5,271.5C 581.859,270.376 582.859,269.042 583.5,267.5 Z"/></g>
<g><path style="opacity:0.084" fill="#fff" d="M 648.5,272.5 C 649.675,272.281 650.675,272.614 651.5,273.5C 647.831,280.465 646.831,280.131 648.5,272.5 Z"/></g>
<g><path style="opacity:0.109" fill="#fff" d="M 658.5,281.5 C 659.5,281.5 660.5,281.5 661.5,281.5C 661.083,284.659 659.25,286.659 656,287.5C 655.5,287.333 655,287.167 654.5,287C 655.965,285.226 657.298,283.392 658.5,281.5 Z"/></g>
<g><path style="opacity:0.999" fill="#fff" d="M 595.5,312.5 C 596.165,453.264 596.832,593.931 597.5,734.5C 633.406,734.83 669.24,734.496 705,733.5C 705.832,593.264 705.666,453.097 704.5,313C 706.433,312.749 708.266,312.249 710,311.5C 722,311.5 734,311.5 746,311.5C 746.667,455.833 746.667,600.167 746,744.5C 745.165,751.808 741.998,757.808 736.5,762.5C 736.167,762.5 735.833,762.5 735.5,762.5C 734.883,762.389 734.383,762.056 734,761.5C 731.043,763.492 728.543,765.825 726.5,768.5C 724.914,769.148 723.247,769.648 721.5,770C 674.5,770.667 627.5,770.667 580.5,770C 566.386,766.215 558.219,757.049 556,742.5C 555.333,599.167 555.333,455.833 556,312.5C 568.848,311.175 582.014,311.175 595.5,312.5 Z"/></g>
<g><path style="opacity:0.999" fill="#fff" d="M 343.5,348.5 C 342.167,412.497 341.5,476.83 341.5,541.5C 341.5,606.001 341.833,670.334 342.5,734.5C 376.167,734.5 409.833,734.5 443.5,734.5C 444.498,697.337 444.832,660.004 444.5,622.5C 457.833,622.5 471.167,622.5 484.5,622.5C 484.5,663.167 484.5,703.833 484.5,744.5C 481.87,757.965 473.87,766.465 460.5,770C 415.5,770.667 370.5,770.667 325.5,770C 314.68,767.339 307.18,760.839 303,750.5C 301.34,612.543 301.007,474.543 302,336.5C 303.019,332.603 304.519,328.936 306.5,325.5C 311.327,319.195 317.661,315.028 325.5,313C 370.833,312.333 416.167,312.333 461.5,313C 474.209,317.041 482.042,325.541 485,338.5C 485.5,376.165 485.667,413.832 485.5,451.5C 471.5,451.5 457.5,451.5 443.5,451.5C 443.5,417.167 443.5,382.833 443.5,348.5C 410.167,348.5 376.833,348.5 343.5,348.5 Z"/></g>
<g><path style="opacity:0.282" fill="#fff" d="M 597.5,734.5 C 596.832,593.931 596.165,453.264 595.5,312.5C 595.81,311.262 596.31,311.262 597,312.5C 597.5,453.166 597.667,593.833 597.5,734.5 Z"/></g>
<g><path style="opacity:0.016" fill="#fff" d="M 306.5,325.5 C 305.833,324.167 305.833,324.167 306.5,325.5 Z"/></g>
<g><path style="opacity:0.592" fill="#fff" d="M 343.5,348.5 C 342.502,477.097 342.169,605.763 342.5,734.5C 341.833,670.334 341.5,606.001 341.5,541.5C 341.5,476.83 342.167,412.497 343.5,348.5 Z"/></g>
<g><path style="opacity:0.463" fill="#fff" d="M 484.5,744.5 C 484.5,703.833 484.5,663.167 484.5,622.5C 471.167,622.5 457.833,622.5 444.5,622.5C 444.832,660.004 444.498,697.337 443.5,734.5C 443.5,696.833 443.5,659.167 443.5,621.5C 457.5,621.5 471.5,621.5 485.5,621.5C 485.832,662.67 485.499,703.67 484.5,744.5 Z"/></g>
<g><path style="opacity:0.251" fill="#fff" d="M 756.5,627.5 C 758.167,627.5 759.833,627.5 761.5,627.5C 761.5,629.167 761.5,630.833 761.5,632.5C 759.833,632.5 758.167,632.5 756.5,632.5C 756.5,630.833 756.5,629.167 756.5,627.5 Z"/></g>
<g><path style="opacity:1" fill="#fff" d="M 757.5,628.5 C 758.5,628.5 759.5,628.5 760.5,628.5C 760.5,629.5 760.5,630.5 760.5,631.5C 759.5,631.5 758.5,631.5 757.5,631.5C 757.5,630.5 757.5,629.5 757.5,628.5 Z"/></g>
<g><path style="opacity:0.563" fill="#fff" d="M 758.5,636.5 C 757.837,638.641 757.503,640.975 757.5,643.5C 757.529,646.269 758.195,648.603 759.5,650.5C 759.5,650.833 759.5,651.167 759.5,651.5C 758.5,651.5 757.5,651.5 756.5,651.5C 756.172,646.125 756.505,640.792 757.5,635.5C 758.107,635.624 758.44,635.957 758.5,636.5 Z"/></g>
<g><path style="opacity:0.576" fill="#fff" d="M 793.5,637.5 C 790.102,637.18 786.768,637.513 783.5,638.5C 786.306,639.168 788.972,639.834 791.5,640.5C 788.5,640.5 785.5,640.5 782.5,640.5C 782.5,639.167 782.5,637.833 782.5,636.5C 786.371,636.185 790.038,636.518 793.5,637.5 Z"/></g>
<g><path style="opacity:0.149" fill="#fff" d="M 761.5,641.5 C 760.833,644.833 760.167,648.167 759.5,651.5C 759.5,651.167 759.5,650.833 759.5,650.5C 759.18,647.102 759.513,643.768 760.5,640.5C 761.107,640.624 761.44,640.957 761.5,641.5 Z"/></g>
<g><path style="opacity:0.99" fill="#fff" d="M 758.5,636.5 C 766.311,639.401 773.978,642.901 781.5,647C 784.817,647.498 788.15,647.665 791.5,647.5C 791.5,645.167 791.5,642.833 791.5,640.5C 788.972,639.834 786.306,639.168 783.5,638.5C 786.768,637.513 790.102,637.18 793.5,637.5C 794.823,641.9 794.823,646.4 793.5,651C 789.167,651.667 784.833,651.667 780.5,651C 775.305,648.212 769.971,645.712 764.5,643.5C 763.71,642.599 762.71,641.932 761.5,641.5C 761.44,640.957 761.107,640.624 760.5,640.5C 759.513,643.768 759.18,647.102 759.5,650.5C 758.195,648.603 757.529,646.269 757.5,643.5C 757.503,640.975 757.837,638.641 758.5,636.5 Z"/></g>
<g><path style="opacity:0.008" fill="#fff" d="M 764.5,643.5 C 763.833,644.167 763.833,644.167 764.5,643.5 Z"/></g>
<g><path style="opacity:0.99" fill="#fff" d="M 780.5,659.5 C 779.5,659.5 778.5,659.5 777.5,659.5C 777.19,662.713 777.523,665.713 778.5,668.5C 783.833,668.5 789.167,668.5 794.5,668.5C 794.5,669.5 794.5,670.5 794.5,671.5C 782.149,671.832 769.815,671.499 757.5,670.5C 763.319,669.833 768.986,669.167 774.5,668.5C 774.5,665.833 774.5,663.167 774.5,660.5C 769.025,659.511 763.358,659.178 757.5,659.5C 757.263,658.209 757.596,657.209 758.5,656.5C 770.42,655.521 782.42,655.188 794.5,655.5C 794.966,657.201 794.966,658.701 794.5,660C 789.78,660.717 785.114,660.55 780.5,659.5 Z"/></g>
<g><path style="opacity:0.063" fill="#fff" d="M 758.5,656.5 C 757.596,657.209 757.263,658.209 757.5,659.5C 763.358,659.178 769.025,659.511 774.5,660.5C 768.5,660.5 762.5,660.5 756.5,660.5C 756.215,658.712 756.548,657.045 757.5,655.5C 758.107,655.624 758.44,655.957 758.5,656.5 Z"/></g>
<g><path style="opacity:0.251" fill="#fff" d="M 780.5,659.5 C 778.758,662.145 778.091,665.145 778.5,668.5C 777.523,665.713 777.19,662.713 777.5,659.5C 778.5,659.5 779.5,659.5 780.5,659.5 Z"/></g>
<g><path style="opacity:0.448" fill="#fff" d="M 774.5,668.5 C 768.986,669.167 763.319,669.833 757.5,670.5C 769.815,671.499 782.149,671.832 794.5,671.5C 782.011,672.495 769.344,672.829 756.5,672.5C 756.5,671.167 756.5,669.833 756.5,668.5C 762.5,668.5 768.5,668.5 774.5,668.5 Z"/></g>
<g><path style="opacity:0.545" fill="#fff" d="M 761.5,677.5 C 758.433,677.121 757.433,678.121 758.5,680.5C 756.824,679.817 756.157,678.483 756.5,676.5C 758.415,676.216 760.081,676.549 761.5,677.5 Z"/></g>
<g><path style="opacity:0.125" fill="#fff" d="M 761.5,680.5 C 762.833,680.5 764.167,680.5 765.5,680.5C 765.806,683.385 765.473,686.052 764.5,688.5C 764.5,686.167 764.5,683.833 764.5,681.5C 763.209,681.737 762.209,681.404 761.5,680.5 Z"/></g>
<g><path style="opacity:0.987" fill="#fff" d="M 761.5,677.5 C 772.524,679.115 783.524,680.949 794.5,683C 794.966,684.299 794.966,685.799 794.5,687.5C 783.482,689.059 772.482,690.725 761.5,692.5C 760.167,692.5 758.833,692.5 757.5,692.5C 757.5,691.5 757.5,690.5 757.5,689.5C 759.806,689.007 762.139,688.674 764.5,688.5C 765.473,686.052 765.806,683.385 765.5,680.5C 764.167,680.5 762.833,680.5 761.5,680.5C 760.5,680.5 759.5,680.5 758.5,680.5C 757.433,678.121 758.433,677.121 761.5,677.5 Z"/></g>
<g><path style="opacity:1" fill="#fff" d="M 773.5,682.5 C 771.833,682.5 770.167,682.5 768.5,682.5C 768.077,684.781 768.744,686.448 770.5,687.5C 769.791,688.404 768.791,688.737 767.5,688.5C 767.5,686.167 767.5,683.833 767.5,681.5C 769.735,681.205 771.735,681.539 773.5,682.5 Z"/></g>
<g><path style="opacity:1" fill="#fff" d="M 773.5,682.5 C 777.777,683.522 782.111,684.355 786.5,685C 781.194,686.067 775.861,686.901 770.5,687.5C 768.744,686.448 768.077,684.781 768.5,682.5C 770.167,682.5 771.833,682.5 773.5,682.5 Z"/></g>
<g><path style="opacity:0.486" fill="#fff" d="M 757.5,689.5 C 757.5,690.5 757.5,691.5 757.5,692.5C 758.833,692.5 760.167,692.5 761.5,692.5C 760.081,693.451 758.415,693.784 756.5,693.5C 756.232,691.901 756.566,690.568 757.5,689.5 Z"/></g>
<g><path style="opacity:0.235" fill="#fff" d="M 756.5,700.5 C 765.506,700.334 774.506,700.5 783.5,701C 782.473,701.513 781.473,702.013 780.5,702.5C 772.5,701.833 764.5,701.167 756.5,700.5 Z"/></g>
<g><path style="opacity:0.993" fill="#fff" d="M 771.5,708.5 C 770.244,708.461 769.244,708.961 768.5,710C 777.16,710.5 785.827,710.666 794.5,710.5C 794.5,711.167 794.5,711.833 794.5,712.5C 781.788,713.146 769.455,712.48 757.5,710.5C 764.954,707.459 772.62,704.792 780.5,702.5C 781.473,702.013 782.473,701.513 783.5,701C 774.506,700.5 765.506,700.334 756.5,700.5C 756.5,699.5 756.5,698.5 756.5,697.5C 769.167,697.5 781.833,697.5 794.5,697.5C 794.67,698.822 794.337,699.989 793.5,701C 786.243,703.808 778.91,706.308 771.5,708.5 Z"/></g>
<g><path style="opacity:0.376" fill="#fff" d="M 771.5,708.5 C 779.167,709.167 786.833,709.833 794.5,710.5C 785.827,710.666 777.16,710.5 768.5,710C 769.244,708.961 770.244,708.461 771.5,708.5 Z"/></g>
<g><path style="opacity:0.584" fill="#fff" d="M 757.5,710.5 C 769.455,712.48 781.788,713.146 794.5,712.5C 782.011,713.495 769.344,713.829 756.5,713.5C 756.263,712.209 756.596,711.209 757.5,710.5 Z"/></g>
<g><path style="opacity:0.998" fill="#fff" d="M 756.5,718.5 C 769.167,718.5 781.833,718.5 794.5,718.5C 797.038,733.612 790.705,739.278 775.5,735.5C 760.459,739.116 754.125,733.449 756.5,718.5 Z"/></g>
<g><path style="opacity:1" fill="#fff" d="M 759.5,722.5 C 770.167,722.5 780.833,722.5 791.5,722.5C 791.768,725.119 791.435,727.619 790.5,730C 785.442,731.116 780.275,731.616 775,731.5C 770.5,731.333 766,731.167 761.5,731C 759.686,728.519 759.02,725.685 759.5,722.5 Z"/></g>
<g><path style="opacity:0.031" fill="#fff" d="M 795.5,731.5 C 796.833,732.167 796.833,732.167 795.5,731.5 Z"/></g>
<g><path style="opacity:0.063" fill="#fff" d="M 477.5,761.5 C 478.833,762.167 478.833,762.167 477.5,761.5 Z"/></g>
<g><path style="opacity:0.024" fill="#fff" d="M 736.5,762.5 C 737.833,763.167 737.833,763.167 736.5,762.5 Z"/></g>
<g><path style="opacity:0.922" fill="#fff" d="M 735.5,762.5 C 733.049,765.277 730.049,767.277 726.5,768.5C 728.543,765.825 731.043,763.492 734,761.5C 734.383,762.056 734.883,762.389 735.5,762.5 Z"/></g>
<g><path style="opacity:0.031" fill="#fff" d="M 775.5,822.5 C 776.833,823.167 776.833,823.167 775.5,822.5 Z"/></g>
<g><path style="opacity:0.012" fill="#fff" d="M 775.5,823.5 C 774.833,824.167 774.833,824.167 775.5,823.5 Z"/></g>
</svg>
