<?xml version="1.0" standalone="no"?>
<!DOCTYPE svg PUBLIC "-//W3C//DTD SVG 20010904//EN"
 "http://www.w3.org/TR/2001/REC-SVG-20010904/DTD/svg10.dtd">
<svg version="1.0" xmlns="http://www.w3.org/2000/svg"
 width="480.000000pt" height="233.000000pt" viewBox="0 0 480.000000 233.000000"
 preserveAspectRatio="xMidYMid meet">

<g transform="translate(0.000000,233.000000) scale(0.100000,-0.100000)"
fill="#000000" stroke="none">
<path d="M2280 1712 c-168 -44 -296 -181 -332 -354 l-12 -58 -107 0 -107 0 -6
-62 c-6 -70 -32 -547 -42 -785 l-7 -153 -31 -4 c-17 -3 -103 -10 -191 -16
-160 -11 -490 -45 -533 -55 -17 -4 -22 -12 -20 -28 3 -20 8 -22 63 -21 33 1
152 11 265 23 113 12 258 24 323 28 l119 6 -8 -116 -7 -117 752 0 752 0 -7
120 -7 120 44 -5 c24 -2 112 -9 194 -15 83 -6 231 -20 329 -31 159 -18 181
-18 194 -5 21 21 2 42 -46 49 -70 12 -337 38 -525 52 -104 8 -190 15 -192 17
-1 2 -12 194 -24 428 -12 234 -24 458 -28 498 l-6 72 -107 0 -107 0 -12 58
c-17 86 -52 152 -121 225 -118 126 -281 173 -450 129z m215 -77 c109 -29 200
-105 249 -210 13 -27 26 -66 28 -85 l3 -35 -379 -3 -378 -2 6 37 c12 68 64
159 118 208 61 55 89 70 160 89 70 19 121 19 193 1z m-553 -472 l3 -58 35 0
35 0 3 58 3 57 379 0 379 0 3 -57 3 -58 35 0 35 0 3 58 3 58 72 -3 72 -3 22
-405 c11 -223 24 -478 28 -567 l8 -163 -666 0 -666 0 5 53 c6 73 54 994 54
1045 l0 42 75 0 74 0 3 -57z"/>
<path d="M2102 608 c-7 -7 -12 -21 -12 -33 0 -12 5 -26 12 -33 28 -28 78 -7
78 33 0 27 -18 45 -45 45 -12 0 -26 -5 -33 -12z"/>
<path d="M2632 608 c-28 -28 -7 -78 33 -78 27 0 45 18 45 45 0 27 -18 45 -45
45 -12 0 -26 -5 -33 -12z"/>
<path d="M2435 438 c-56 -20 -102 -76 -75 -93 10 -6 226 21 241 31 21 12 6 36
-33 54 -47 22 -87 24 -133 8z"/>
</g>
</svg>
