<?xml version="1.0" standalone="no"?>
<!DOCTYPE svg PUBLIC "-//W3C//DTD SVG 20010904//EN"
 "http://www.w3.org/TR/2001/REC-SVG-20010904/DTD/svg10.dtd">
<svg version="1.0" xmlns="http://www.w3.org/2000/svg"
 width="1200.000000pt" height="223.000000pt" viewBox="0 0 1200.000000 223.000000"
 preserveAspectRatio="xMidYMid meet">

<g transform="translate(0.000000,223.000000) scale(0.100000,-0.100000)"
fill="#4F6F52" stroke="none">
<path d="M10348 2180 c-209 -38 -362 -161 -429 -346 -29 -78 -31 -241 -5 -328
74 -248 265 -393 504 -384 l87 3 65 -54 c138 -115 268 -181 359 -181 54 0 157
34 209 68 l42 29 -62 17 c-86 24 -150 63 -252 152 l-86 75 46 57 c147 179 175
420 74 628 -79 162 -234 261 -420 269 -47 2 -106 0 -132 -5z m174 -186 c55
-38 101 -115 124 -207 26 -101 26 -292 0 -365 -68 -196 -290 -199 -393 -5 -50
94 -67 165 -66 283 0 164 36 255 121 308 31 19 48 22 104 20 55 -3 75 -9 110
-34z"/>
<path d="M84 2102 c19 -37 165 -401 326 -807 160 -407 307 -771 325 -810 68
-141 180 -248 340 -325 91 -44 211 -85 278 -95 42 -7 45 -6 55 22 5 15 152
424 327 908 267 740 415 1159 415 1172 0 2 -110 3 -245 3 -135 0 -245 -2 -245
-5 0 -3 20 -44 44 -92 25 -49 48 -100 51 -114 5 -20 -52 -184 -230 -659 -130
-349 -239 -640 -244 -648 -5 -9 -105 255 -286 752 l-278 766 -333 0 -334 0 34
-68z"/>
<path d="M2236 2158 c5 -7 43 -67 86 -133 l78 -120 0 -793 c0 -565 -3 -800
-11 -815 -6 -12 -38 -61 -71 -110 l-59 -87 311 0 c246 0 310 3 304 13 -4 6
-41 53 -81 104 l-74 91 1 563 c0 309 1 564 3 565 1 2 212 -255 467 -569 499
-614 527 -643 675 -716 83 -41 227 -84 328 -96 l57 -7 0 954 c0 878 1 955 17
978 9 14 42 57 73 95 31 39 60 76 64 83 6 9 -58 12 -303 12 l-310 0 69 -102
70 -103 -2 -542 -3 -541 -520 641 -521 642 -328 3 c-262 2 -326 0 -320 -10z"/>
<path d="M4587 2106 c33 -36 55 -71 64 -103 12 -39 14 -195 14 -878 l0 -830
-29 -63 c-16 -34 -46 -78 -67 -97 l-39 -35 425 0 c234 0 425 3 425 6 0 4 -16
24 -35 45 -45 50 -72 104 -90 181 -12 53 -15 184 -15 797 l0 734 49 -6 c150
-18 244 -115 271 -280 21 -133 5 -269 -45 -367 -33 -66 -112 -146 -184 -187
l-55 -31 38 -7 c61 -12 241 4 344 31 262 66 427 213 477 426 31 133 15 296
-43 418 -36 79 -141 178 -233 224 -147 71 -131 70 -758 74 l-564 3 50 -55z"/>
<path d="M6563 2111 c62 -66 73 -110 53 -210 -9 -42 -77 -249 -152 -461 -75
-212 -189 -537 -255 -723 -140 -401 -167 -460 -249 -550 l-62 -67 326 0 c179
0 326 4 326 8 0 4 -18 26 -41 47 -93 91 -92 130 12 422 50 138 52 143 83 148
17 3 159 4 316 3 l285 -3 59 -170 c50 -145 59 -181 60 -246 1 -68 -2 -79 -27
-113 -16 -20 -44 -47 -63 -59 -18 -12 -34 -25 -34 -29 0 -5 216 -8 480 -8 264
0 480 3 480 6 0 3 -31 39 -69 80 -42 45 -84 103 -108 151 -22 43 -188 471
-369 951 l-328 872 -384 0 -385 0 46 -49z m426 -774 c57 -160 106 -298 109
-304 3 -10 -43 -13 -212 -13 -119 0 -216 2 -216 5 0 16 203 605 209 605 3 0
53 -132 110 -293z"/>
<path d="M7757 2121 c77 -60 115 -112 447 -606 l314 -466 7 -74 c4 -41 5 -209
3 -372 -4 -277 -6 -302 -27 -355 -14 -37 -37 -70 -66 -97 -25 -23 -45 -44 -45
-46 0 -3 198 -5 441 -5 l441 0 -43 48 c-95 107 -109 178 -109 579 l0 312 373
533 c205 293 381 545 391 561 l18 27 -363 0 -363 0 34 -25 c79 -58 95 -139 49
-250 -29 -69 -308 -471 -319 -458 -4 4 -110 171 -235 371 l-227 362 -385 0
-385 0 49 -39z"/>
<path d="M11032 2128 l23 -33 3 -415 c2 -228 0 -429 -3 -447 -3 -18 -17 -46
-31 -63 l-26 -30 208 0 207 0 -21 23 c-36 38 -42 73 -42 245 l0 167 98 -182
c53 -100 106 -193 117 -208 34 -44 92 -57 224 -49 161 10 159 8 105 73 -50 60
-267 417 -262 430 2 5 25 24 53 43 69 46 108 112 113 193 8 125 -52 222 -162
264 -53 20 -76 21 -342 21 l-285 0 23 -32z m418 -137 c64 -46 84 -149 44 -226
-21 -40 -79 -88 -121 -100 l-23 -6 0 181 0 182 38 -6 c20 -4 48 -15 62 -25z"/>
</g>
</svg>
