<?xml version="1.0" standalone="no"?>
<!DOCTYPE svg PUBLIC "-//W3C//DTD SVG 20010904//EN"
 "http://www.w3.org/TR/2001/REC-SVG-20010904/DTD/svg10.dtd">
<svg version="1.0" xmlns="http://www.w3.org/2000/svg"
 width="1259.000000pt" height="273.000000pt" viewBox="0 0 1259.000000 273.000000"
 preserveAspectRatio="xMidYMid meet">

<g transform="translate(0.000000,273.000000) scale(0.100000,-0.100000)"
fill="#000000" stroke="none">
<path d="M12358 2702 c-25 -12 -141 -134 -383 -407 -190 -214 -355 -396 -366
-404 -30 -21 -57 -7 -174 90 -193 161 -284 228 -321 235 -79 15 -154 -49 -154
-131 0 -38 19 -68 251 -391 138 -192 264 -366 280 -386 34 -43 82 -57 129 -38
21 9 144 162 443 554 507 663 504 659 517 705 18 69 -17 141 -83 172 -52 23
-91 24 -139 1z"/>
<path d="M5476 1719 c-368 -51 -583 -223 -667 -534 -30 -111 -38 -380 -15
-512 67 -389 304 -597 733 -644 182 -20 413 0 583 51 l70 21 0 140 c0 131 -1
141 -17 134 -61 -26 -178 -57 -261 -71 -116 -19 -337 -14 -422 10 -194 55
-323 192 -365 392 -19 90 -19 290 0 372 60 255 257 382 593 382 164 0 315 -28
455 -85 16 -7 17 3 17 133 l0 140 -50 17 c-118 39 -234 56 -410 60 -96 2 -206
0 -244 -6z"/>
<path d="M10 1702 c0 -5 156 -380 346 -833 190 -453 348 -830 351 -836 4 -10
48 -13 172 -13 l167 0 367 838 c202 460 367 841 367 845 0 4 -81 7 -179 7
-134 0 -180 -3 -184 -12 -88 -224 -511 -1265 -517 -1271 -4 -4 -109 245 -235
555 -125 310 -242 599 -260 643 l-33 80 -181 3 c-100 1 -181 -2 -181 -6z"/>
<path d="M1950 1585 l0 -125 155 0 155 0 0 125 0 125 -155 0 -155 0 0 -125z"/>
<path d="M9430 1454 c0 -240 -1 -256 -17 -249 -93 39 -143 48 -258 48 -306 0
-489 -129 -551 -389 -22 -92 -22 -312 0 -414 46 -216 170 -350 378 -408 49
-13 101 -17 228 -16 168 0 246 9 428 46 l102 21 0 808 0 809 -155 0 -155 0 0
-256z m-65 -485 l60 -24 0 -315 0 -314 -45 -14 c-26 -9 -93 -15 -160 -16 -102
-1 -121 2 -162 22 -62 31 -110 86 -139 158 -20 51 -23 77 -23 194 -1 120 1
141 22 186 29 65 75 109 138 134 70 29 224 23 309 -11z"/>
<path d="M10060 1585 l0 -125 150 0 150 0 0 125 0 125 -150 0 -150 0 0 -125z"/>
<path d="M3870 887 c0 -590 4 -656 41 -728 23 -46 87 -101 136 -119 24 -8 107
-15 226 -17 l187 -5 0 120 0 119 -88 5 c-109 6 -147 24 -173 81 -17 38 -19 69
-19 355 l0 312 140 0 140 0 0 125 0 125 -158 0 -158 0 -23 100 -22 100 -115 0
-114 0 0 -573z"/>
<path d="M10682 853 l3 -608 23 -57 c26 -65 88 -126 149 -148 24 -8 106 -15
226 -17 l187 -5 0 120 0 119 -88 5 c-101 6 -144 24 -169 71 -16 28 -18 69 -21
355 l-3 322 140 0 141 0 0 125 0 124 -157 3 -157 3 -17 70 c-9 39 -20 82 -23
98 l-6 27 -116 0 -115 0 3 -607z"/>
<path d="M1950 640 l0 -620 155 0 155 0 0 620 0 620 -155 0 -155 0 0 -620z"/>
<path d="M3015 1250 c-237 -38 -382 -172 -430 -396 -19 -90 -19 -308 0 -397
44 -210 181 -348 404 -409 64 -18 106 -21 271 -22 116 0 230 5 283 13 l87 13
0 124 0 124 -25 -5 c-14 -3 -36 -7 -49 -10 -68 -14 -301 -23 -377 -15 -109 12
-147 24 -205 63 -52 34 -87 93 -99 160 l-6 37 415 0 414 0 7 76 c4 42 5 111 1
153 -24 266 -139 417 -363 476 -73 19 -249 27 -328 15z m272 -265 c63 -28 98
-77 114 -157 19 -94 36 -89 -263 -86 l-263 3 3 34 c9 83 55 162 116 200 74 46
200 48 293 6z"/>
<path d="M6500 640 l0 -620 150 0 150 0 0 419 0 419 48 42 c60 54 149 97 218
106 l54 6 0 124 c0 141 6 135 -93 109 -73 -19 -140 -53 -204 -104 l-51 -40
-19 77 -19 77 -117 3 -117 3 0 -621z"/>
<path d="M7760 1253 c-251 -33 -394 -150 -456 -374 -14 -48 -18 -102 -19 -219
0 -174 10 -228 61 -336 106 -224 330 -318 713 -300 80 4 178 13 216 19 l70 12
3 123 c1 67 1 122 -1 122 -2 0 -28 -5 -58 -10 -30 -6 -112 -14 -182 -19 -150
-11 -281 0 -359 29 -88 33 -158 121 -158 200 l0 30 409 0 409 0 6 23 c11 42 6
242 -9 311 -43 203 -172 335 -365 376 -62 12 -227 21 -280 13z m230 -260 c73
-30 119 -100 127 -195 l6 -58 -268 0 -268 0 7 48 c20 154 135 240 301 225 33
-3 76 -12 95 -20z"/>
<path d="M10060 640 l0 -620 150 0 150 0 0 620 0 620 -150 0 -150 0 0 -620z"/>
</g>
</svg>
