<svg viewBox="0 0 402 60" fill="none" xmlns="http://www.w3.org/2000/svg">
<g clip-path="url(#clip0_1_310)">
<mask id="mask0_1_310" style="mask-type:luminance" maskUnits="userSpaceOnUse" x="0" y="0" width="60" height="60">
<path d="M60 0H0V60H60V0Z" fill="white"/>
</mask>
<g mask="url(#mask0_1_310)">
<path d="M59.8563 29.8225C59.8563 35.7216 58.107 41.4881 54.829 46.3927C51.5514 51.2975 46.893 55.1197 41.4425 57.3765C35.9922 59.6332 29.995 60.2227 24.2095 59.0708C18.4241 57.9186 13.1102 55.0766 8.94013 50.9041C4.77005 46.732 1.93106 41.4164 0.782258 35.6302C-0.366541 29.8441 0.226459 23.8473 2.48625 18.3982C4.74605 12.9492 8.57109 8.29272 13.4776 5.01777C18.3841 1.74288 24.1517 -0.0033384 30.0507 4.7915e-06C37.9576 0.00336599 45.5392 3.14698 51.1289 8.73955C56.7182 14.3321 59.8576 21.9157 59.8563 29.8225Z" fill="white"/>
<path d="M30.0718 58.2465C35.6905 58.2448 41.1825 56.577 45.8535 53.4545C50.5246 50.332 54.1648 45.8941 56.3138 40.7028C58.4632 35.5114 59.0248 29.7994 57.9279 24.2888C56.831 18.7782 54.1251 13.7166 50.1516 9.74387C46.1785 5.77115 41.1164 3.06576 35.6057 1.96971C30.0949 0.873667 24.3829 1.43619 19.1918 3.58617C14.0008 5.73617 9.56375 9.37707 6.44176 14.0485C3.31976 18.72 1.65297 24.2123 1.65213 29.8309C1.65047 33.5633 2.38445 37.2595 3.81213 40.7081C5.23982 44.1566 7.33323 47.2897 9.9726 49.9289C12.612 52.568 15.7457 54.6608 19.1944 56.0882C22.6432 57.5151 26.3395 58.2486 30.0718 58.2465Z" fill="#0869AB"/>
<mask id="mask1_1_310" style="mask-type:luminance" maskUnits="userSpaceOnUse" x="1" y="1" width="58" height="58">
<path d="M1.65213 29.8436C1.6513 35.462 3.31652 40.9545 6.43724 45.6266C9.55796 50.2986 13.994 53.94 19.1844 56.0911C24.3748 58.2418 30.0864 58.8051 35.597 57.7099C41.1076 56.6147 46.1696 53.91 50.1431 49.9377C54.1162 45.9655 56.8225 40.9042 57.9194 35.394C59.0163 29.8837 58.4548 24.1719 56.3054 18.9809C54.1563 13.7898 50.5158 9.35273 45.8447 6.23062C41.1737 3.10852 35.6818 1.44164 30.0634 1.44081C26.3328 1.4397 22.6385 2.17354 19.1915 3.60042C15.7446 5.02728 12.6125 7.11925 9.97412 9.7568C7.33577 12.3944 5.24286 15.5258 3.81497 18.9724C2.38707 22.419 1.65213 26.113 1.65213 29.8436Z" fill="white"/>
</mask>
<g mask="url(#mask1_1_310)">
<path d="M30.3127 43.5338C42.8113 43.5338 53.5014 47.0239 58.1028 51.9634C59.6683 48.3355 60.4737 44.4258 60.469 40.4746C60.469 24.1605 46.9479 10.969 30.3127 10.969C13.6775 10.969 0.177491 24.1732 0.177491 40.4831C0.176789 44.4313 0.983457 48.338 2.54792 51.9634C7.14089 47.0282 17.8437 43.5338 30.3127 43.5338Z" fill="#0869AB"/>
<path d="M30.3127 43.5676C42.7775 43.5676 53.4423 47.0282 58.0268 51.9296C59.5927 48.3304 60.3968 44.4461 60.3887 40.5212C60.3887 24.3423 46.9183 11.2141 30.3127 11.2141C13.707 11.2141 0.249325 24.3507 0.249325 40.5296C0.245841 44.4549 1.05282 48.3389 2.61974 51.938C7.19578 47.0282 17.869 43.5676 30.3127 43.5676Z" fill="#0D6BAD"/>
<path d="M30.3127 43.5972C42.7479 43.5972 53.3831 47.0324 57.9592 51.8831C59.5166 48.3203 60.3177 44.4731 60.3127 40.5845C60.3127 24.5281 46.8761 11.4718 30.3127 11.4718C13.7493 11.4718 0.312698 24.5408 0.312698 40.5887C0.313016 44.4765 1.11868 48.322 2.6789 51.8831C7.23807 47.0282 17.8902 43.5972 30.3 43.5972" fill="#0F6EAD"/>
<path d="M30.3127 43.6479C42.7183 43.6479 53.3239 47.0535 57.8873 51.8704C59.4393 48.3359 60.2379 44.5166 60.2324 40.6564C60.2324 24.7395 46.8338 11.7423 30.3127 11.7423C13.7916 11.7423 0.40567 24.7479 0.40567 40.6648C0.406623 44.5234 1.21102 48.3397 2.76764 51.8704C7.30568 47.0282 17.924 43.6479 30.3127 43.6479Z" fill="#1270B0"/>
<path d="M30.3127 43.6479C42.6845 43.6479 53.269 47.0282 57.8155 51.8028C59.3586 48.3017 60.153 44.5166 60.1479 40.6901C60.1479 24.9042 46.7789 11.9577 30.3 11.9577C13.8212 11.9577 0.46904 24.8958 0.46904 40.6901C0.468727 44.5162 1.26897 48.3 2.81833 51.7986C7.36479 47.0282 17.9493 43.6479 30.3127 43.6479Z" fill="#1473B2"/>
<path d="M30.3127 43.6944C42.6507 43.6944 53.2056 47.0409 57.7394 51.7817C59.2842 48.3106 60.0807 44.553 60.076 40.7535C60.076 25.0943 46.7451 12.2324 30.3085 12.2324C13.8719 12.2324 0.55777 25.107 0.55777 40.762C0.55905 44.5601 1.35799 48.3161 2.90285 51.7859C7.42398 47.0451 17.9916 43.6986 30.3085 43.6986" fill="#1775B2"/>
<path d="M30.3127 43.7239C42.6211 43.7239 53.1296 47.0451 57.6718 51.7521C59.212 48.311 60.0068 44.5825 60.0042 40.8126C60.0042 25.2886 46.7028 12.5027 30.3127 12.5027C13.9225 12.5027 0.638031 25.314 0.638031 40.8379C0.639768 44.6066 1.43595 48.333 2.97465 51.7732C7.49155 47.0704 18.0253 43.7451 30.3127 43.7451" fill="#1A78B5"/>
<path d="M30.2873 43.7578C42.562 43.7578 53.062 47.0493 57.5746 51.7099C59.1093 48.2987 59.8986 44.5994 59.8901 40.8591C59.8901 25.4662 46.6268 12.7309 30.2746 12.7309C13.9225 12.7309 0.69719 25.4788 0.69719 40.8718C0.696649 44.6096 1.49324 48.3042 3.03381 51.7099C7.53802 47.062 18.0465 43.7578 30.2958 43.7578" fill="#1C7AB5"/>
<path d="M30.2874 43.7873C42.5408 43.7873 53.0028 47.0493 57.4986 51.6676C59.0379 48.292 59.8318 44.6244 59.8268 40.9141C59.8268 25.6563 46.5972 12.9803 30.2874 12.9803C13.9775 12.9803 0.764806 25.6563 0.764806 40.9225C0.762449 44.6324 1.55638 48.2996 3.09297 51.6761C7.58454 47.0535 18.0634 43.7958 30.2831 43.7958" fill="#1C7DB8"/>
<path d="M30.2831 43.8211C42.4944 43.8211 52.9394 47.0577 57.4268 51.638C58.958 48.2928 59.7494 44.6565 59.7465 40.9774C59.7465 25.8464 46.5465 13.2337 30.2831 13.2337C14.0197 13.2337 0.836639 25.8548 0.836639 40.9774C0.836927 44.6565 1.62954 48.2924 3.16058 51.638C7.64366 47.0577 18.1014 43.8211 30.2831 43.8211Z" fill="#1F80B8"/>
<path d="M30.2789 43.8507C42.4606 43.8507 52.8803 47.0577 57.3549 51.5958C58.8816 48.2835 59.6704 44.6793 59.6662 41.0324C59.6662 26.0324 46.5085 13.4873 30.2789 13.4873C14.0493 13.4873 0.908463 26.0408 0.908463 41.0366C0.910115 44.6839 1.70148 48.2877 3.22818 51.6C7.6986 47.062 18.1268 43.8549 30.2704 43.8549" fill="#2182BA"/>
<path d="M30.2704 43.8845C42.4141 43.8845 52.8084 47.062 57.2704 51.562C58.7941 48.2801 59.5829 44.7055 59.5817 41.0873C59.5817 26.2183 46.4535 13.7366 30.2747 13.7366C14.0958 13.7366 0.984528 26.2268 0.984528 41.1127C0.984067 44.7296 1.77284 48.3025 3.2958 51.5831C7.74932 47.0831 18.1521 43.9056 30.2704 43.9056" fill="#2485BA"/>
<path d="M30.2704 43.9141C42.3845 43.9141 52.7493 47.062 57.1986 51.5197C58.7206 48.2692 59.5069 44.7228 59.5014 41.1338C59.5014 26.4 46.4028 13.9859 30.2746 13.9859C14.1465 13.9859 1.06056 26.4084 1.06056 41.138C1.06391 44.7258 1.8528 48.2692 3.37183 51.5197C7.81267 47.0578 18.1901 43.9141 30.2789 43.9141" fill="#298ABD"/>
<path d="M30.2662 43.9479C42.3465 43.9479 52.6817 47.0662 57.1225 51.4901C58.6373 48.2704 59.4207 44.7554 59.4169 41.1972C59.4169 26.5901 46.3648 14.2437 30.262 14.2437C14.1592 14.2437 1.10707 26.6028 1.10707 41.1972C1.10788 44.7554 1.89269 48.2696 3.40566 51.4901C7.8423 47.0662 18.1944 43.9479 30.2408 43.9479" fill="#2B8CBF"/>
<path d="M30.262 43.9775C42.3127 43.9775 52.6225 47.0704 57.0507 51.4521C58.5596 48.2637 59.3404 44.7794 59.3366 41.2521C59.3366 26.7803 46.3183 14.4972 30.262 14.4972C14.2057 14.4972 1.20004 26.7887 1.20004 41.2521C1.20223 44.7799 1.98578 48.2632 3.4944 51.4521C7.91836 47.0704 18.2409 43.9775 30.2578 43.9775" fill="#2E8FBF"/>
<path d="M30.2577 44.0113C42.2746 44.0113 52.5592 47.0747 56.9746 51.4183C58.4818 48.2607 59.2627 44.8056 59.2606 41.307C59.2606 26.9662 46.2761 14.7507 30.2577 14.7507C14.2394 14.7507 1.27606 26.9788 1.27606 41.3155C1.27675 44.8111 2.05771 48.2628 3.56198 51.4183C7.96901 47.0747 18.2662 44.0113 30.2577 44.0113Z" fill="#2E91C2"/>
<path d="M30.2535 44.0408C42.2408 44.0408 52.4958 47.0746 56.8986 51.3761C58.4011 48.2518 59.1799 44.8289 59.1761 41.362C59.1761 27.1563 46.2211 15 30.2535 15C14.2859 15 1.34792 27.169 1.34792 41.362C1.3494 44.8293 2.13064 48.2518 3.63382 51.3761C8.0324 47.0746 18.3 44.0408 30.2535 44.0408Z" fill="#3394C2"/>
<path d="M30.2493 44.0704C42.2029 44.0704 52.4324 47.0789 56.8225 51.338C58.3246 48.2451 59.1034 44.8508 59.1 41.4126C59.1 27.3379 46.1831 15.2492 30.2535 15.2492C14.3239 15.2492 1.42397 27.3422 1.42397 41.4168C1.42244 44.8555 2.1981 48.2497 3.69298 51.3465C8.08314 47.0831 18.3169 44.0789 30.2451 44.0789" fill="#3396C2"/>
<path d="M30.2451 44.1085C42.1648 44.1085 52.369 47.0662 56.7422 51.2916C58.2406 48.2324 59.0168 44.8699 59.0113 41.4633C59.0113 27.5197 46.1324 15.4943 30.2409 15.4943C14.3493 15.4943 1.50847 27.5197 1.50847 41.4633C1.5111 44.8699 2.28998 48.2311 3.78594 51.2916C8.15919 47.0662 18.3676 44.1085 30.262 44.1085" fill="#3699C4"/>
<path d="M30.2408 44.138C42.1352 44.138 52.3099 47.0958 56.6704 51.2746C58.1649 48.2459 58.9399 44.9125 58.9352 41.5352C58.9352 27.7183 46.0901 15.7606 30.2408 15.7606C14.3916 15.7606 1.58031 27.7226 1.58031 41.5352C1.58267 44.9041 2.3544 48.2282 3.83665 51.2535C8.19719 47.0662 18.3845 44.1169 30.2408 44.1169" fill="#389CC7"/>
<path d="M30.2367 44.1718C42.0972 44.1718 52.2423 47.0958 56.5901 51.2366C58.08 48.2392 58.8554 44.9375 58.8549 41.5901C58.8549 27.9042 46.0394 16.014 30.2367 16.014C14.4338 16.014 1.63947 27.9126 1.63947 41.5901C1.6396 44.9425 2.4147 48.2497 3.90425 51.2535C8.25638 47.1127 18.4099 44.1887 30.2408 44.1887" fill="#3DA1C9"/>
<path d="M30.2367 44.2056C42.0676 44.2056 52.2084 47.0958 56.5183 51.1986C58.0061 48.2341 58.7785 44.962 58.7746 41.6451C58.7746 28.0944 45.9972 16.2634 30.2367 16.2634C14.4761 16.2634 1.71552 28.0944 1.71552 41.6451C1.71781 44.9607 2.48868 48.2311 3.96762 51.1986C8.31126 47.0958 18.4395 44.2056 30.2367 44.2056Z" fill="#40A3C9"/>
<path d="M30.2282 44.2352C42.0211 44.2352 52.1197 47.0958 56.4253 51.1648C57.9051 48.2294 58.6749 44.9873 58.6732 41.7001C58.6732 28.2803 45.9338 16.5127 30.2113 16.5127C14.4888 16.5127 1.77045 28.2803 1.77045 41.7001C1.77142 44.9869 2.54121 48.2282 4.01833 51.1648C8.34929 47.1 18.4521 44.2352 30.2155 44.2352" fill="#42A6CC"/>
<path d="M30.2282 44.2648C41.9915 44.2648 52.0563 47.1 56.3704 51.1183C57.8476 48.2168 58.6149 45.0063 58.6099 41.7507C58.6099 28.4619 45.9042 16.7577 30.2282 16.7577C14.5521 16.7577 1.86762 28.4619 1.86762 41.7464C1.86665 45.003 2.63391 48.2138 4.10706 51.1183C8.42116 47.0958 18.4986 44.2648 30.2282 44.2648Z" fill="#45A8CC"/>
<path d="M30.2198 44.2986C41.9536 44.2986 51.9887 47.1 56.2944 51.0887C57.7694 48.2125 58.5359 45.0254 58.5296 41.793C58.5296 28.6352 45.8535 16.9986 30.2198 16.9986C14.586 16.9986 1.93102 28.6394 1.93102 41.793C1.92858 45.0249 2.69473 48.2113 4.16624 51.0887C8.47187 47.1 18.5324 44.2986 30.2155 44.2986" fill="#47ABCF"/>
<path d="M30.2198 44.3324C41.9198 44.3324 51.9338 47.1085 56.2183 51.0549C57.6892 48.2163 58.4556 45.0659 58.4535 41.869C58.4535 28.8422 45.8155 17.2732 30.2198 17.2732C14.624 17.2732 2.00284 28.8591 2.00284 41.8648C2.00633 45.0608 2.77263 48.21 4.23807 51.0507C8.52258 47.1085 18.5451 44.3282 30.2155 44.3282" fill="#4AADD1"/>
<path d="M30.2155 44.362C41.8817 44.362 51.8662 47.1127 56.1423 51.0169C57.6101 48.2121 58.3753 45.0934 58.3732 41.9281C58.3732 29.0324 45.7648 17.5225 30.2155 17.5225C14.6662 17.5225 2.07889 29.0324 2.07889 41.9197C2.08261 45.087 2.84778 48.207 4.30986 51.0169C8.58591 47.1127 18.5831 44.362 30.2155 44.362Z" fill="#4AB0D1"/>
<path d="M30.2113 44.3958C41.8437 44.3958 51.807 47.1127 56.0704 50.9831C57.5328 48.1999 58.2942 45.1018 58.2887 41.9577C58.2887 29.1972 45.7183 17.7549 30.2113 17.7549C14.7043 17.7549 2.15495 29.1972 2.15495 41.9535C2.15769 45.0917 2.92026 48.1825 4.37747 50.962C8.64508 47.0915 18.6085 44.3746 30.2113 44.3746" fill="#4FB2D4"/>
<path d="M30.2071 44.4254C41.8057 44.4254 51.7563 47.1169 55.9817 50.9451C57.4416 48.202 58.2034 45.1411 58.2 42.0338C58.2 29.4 45.6634 18.0253 30.1986 18.0253C14.7338 18.0253 2.21834 29.4 2.21834 42.0295C2.22103 45.1373 2.98098 48.1973 4.43244 50.9451C8.69159 47.1169 18.6296 44.4254 30.2071 44.4254Z" fill="#54BAD6"/>
<path d="M30.2028 44.4592C41.7718 44.4592 51.6803 47.1211 55.9099 50.9071C57.3655 48.1973 58.1265 45.169 58.1239 42.093C58.1239 29.5944 45.6253 18.2831 30.2028 18.2831C14.7803 18.2831 2.31551 29.5944 2.31551 42.093C2.31715 45.1694 3.07611 48.1978 4.52539 50.9113C8.75074 47.1085 18.6845 44.4634 30.2198 44.4634" fill="#54BDD6"/>
<path d="M30.1986 44.493C41.7338 44.493 51.6169 47.1254 55.8423 50.8732C57.2924 48.1935 58.0521 45.1948 58.0521 42.1479C58.0521 29.776 45.5873 18.5324 30.2028 18.5324C14.8183 18.5324 2.37468 29.776 2.37468 42.1394C2.37795 45.188 3.13569 48.1885 4.58033 50.8732C8.80568 47.1254 18.6972 44.493 30.2028 44.493" fill="#59BFD9"/>
<path d="M30.1944 44.5225C41.7 44.5225 51.5493 47.1254 55.762 50.8352C57.2087 48.188 57.9655 45.2193 57.9634 42.2028C57.9634 29.9493 45.5324 18.7859 30.1901 18.7859C14.8479 18.7859 2.42537 29.9662 2.42537 42.1944C2.42659 45.2125 3.18186 48.183 4.62257 50.8352C8.84793 47.1254 18.7014 44.5225 30.1733 44.5225" fill="#59C2D9"/>
<path d="M30.1944 44.5944C41.6789 44.5944 51.5239 47.1845 55.7324 50.8648C57.1749 48.2362 57.9309 45.2856 57.9296 42.2873C57.9296 30.131 45.5155 19.0141 30.1944 19.0141C14.8733 19.0141 2.48454 30.1268 2.48454 42.2831C2.48954 45.2823 3.24486 48.2324 4.6817 50.8648C8.90705 47.1845 18.7437 44.5944 30.1986 44.5944" fill="#5EC2DB"/>
<path d="M30.1944 44.6662C41.6662 44.6662 51.4944 47.2394 55.6901 50.8944C57.1339 48.2861 57.8899 45.3532 57.8873 42.3718C57.8873 30.2916 45.4944 19.2423 30.1944 19.2423C14.8944 19.2423 2.51834 30.2958 2.51834 42.3676C2.52421 45.3486 3.27823 48.2806 4.71131 50.8944C8.93666 47.2394 18.7522 44.6662 30.1944 44.6662Z" fill="#63C4DB"/>
<path d="M30.1944 44.738C41.6536 44.738 51.4648 47.2944 55.6606 50.9282C57.0963 48.3427 57.8506 45.4348 57.8535 42.4775C57.8535 30.4774 45.4732 19.4915 30.1944 19.4915C14.9155 19.4915 2.56059 30.4774 2.56059 42.4732C2.5674 45.4293 3.32023 48.3359 4.74934 50.924C8.95357 47.2944 18.7733 44.7338 30.1944 44.7338" fill="#69C7DE"/>
<path d="M30.1944 44.8099C41.6366 44.8099 51.4394 47.3451 55.6225 50.962C57.057 48.3917 57.8104 45.4969 57.8113 42.5535C57.8113 30.6295 45.4479 19.7112 30.1901 19.7112C14.9324 19.7112 2.59438 30.6338 2.59438 42.5282C2.59699 45.4749 3.34871 48.3727 4.77888 50.9493C8.97888 47.3366 18.7817 44.7972 30.1901 44.7972" fill="#6EC9DE"/>
<path d="M30.1944 44.8817C41.6029 44.8817 51.4099 47.4169 55.5887 50.9916C57.0211 48.4403 57.7749 45.5641 57.7775 42.638C57.7775 30.807 45.431 19.9394 30.1944 19.9394C14.9578 19.9394 2.63664 30.7986 2.63664 42.6338C2.64354 45.5611 3.3953 48.439 4.82117 50.9958C9.01272 47.4042 18.8029 44.8859 30.1986 44.8859" fill="#73CCE0"/>
<path d="M30.1944 44.9578C41.6029 44.9578 51.3761 47.4634 55.5465 51.0254C56.9751 48.4927 57.7272 45.6347 57.731 42.7268C57.731 30.9634 45.3972 20.1718 30.186 20.1718C14.9747 20.1718 2.67046 30.9718 2.67046 42.7225C2.67658 45.6313 3.42873 48.4902 4.85498 51.0254C9.03807 47.4634 18.7986 44.9578 30.2071 44.9578" fill="#7ACFE0"/>
<path d="M30.1944 45.0296C41.6029 45.0296 51.3507 47.5183 55.5211 51.0592C56.9472 48.5472 57.6985 45.7082 57.7014 42.8197C57.7014 31.1365 45.3887 20.4253 30.1944 20.4253C15 20.4253 2.72961 31.1534 2.72961 42.8197C2.73744 45.7086 3.4867 48.5468 4.90568 51.0634C9.08455 47.5225 18.8493 45.0338 30.2155 45.0338" fill="#80CFE3"/>
<path d="M30.1944 45.1014C41.5733 45.1014 51.3211 47.5732 55.4831 51.0887C56.9062 48.5966 57.6575 45.7779 57.6634 42.9084C57.6634 31.3014 45.3634 20.6408 30.1986 20.6408C15.0338 20.6408 2.73384 31.3013 2.73384 42.8958C2.74124 45.7686 3.49082 48.5907 4.9099 51.0887C9.08032 47.5732 18.8536 45.1014 30.186 45.1014" fill="#85D1E3"/>
<path d="M30.1944 45.1732C41.5606 45.1732 51.2915 47.6282 55.4493 51.1183C56.8699 48.6439 57.6203 45.8417 57.6254 42.9887C57.6254 31.4619 45.3465 20.8648 30.1944 20.8648C15.0423 20.8648 2.78455 31.4619 2.78455 42.9803C2.79142 45.8358 3.54135 48.6406 4.96061 51.1183C9.12258 47.6282 18.8662 45.1732 30.1986 45.1732" fill="#8AD4E5"/>
<path d="M30.1944 45.2451C41.5395 45.2451 51.2662 47.6831 55.4155 51.1606C56.8339 48.7069 57.5844 45.9241 57.5916 43.0901C57.5916 31.6437 45.338 21.1183 30.1944 21.1183C15.0507 21.1183 2.81833 31.6521 2.81833 43.0901C2.82722 45.9241 3.57429 48.7073 4.98592 51.1648C9.14789 47.6958 18.8789 45.2493 30.1944 45.2493" fill="#8FD6E5"/>
<path d="M30.1944 45.3169C41.5268 45.3169 51.2366 47.738 55.3817 51.1775C56.7993 48.7394 57.5472 45.9697 57.5493 43.1493C57.5493 31.7789 45.2958 21.3169 30.1944 21.3169C15.093 21.3169 2.8479 31.8169 2.8479 43.162C2.85558 45.9811 3.60145 48.7487 5.01126 51.1901C9.16478 47.7465 18.8789 45.3254 30.1817 45.3254" fill="#94D6E8"/>
<path d="M30.1944 45.3887C41.5099 45.3887 51.2071 47.793 55.3479 51.207C56.7592 48.7927 57.5054 46.0475 57.5113 43.2507C57.5113 31.9606 45.2789 21.562 30.1944 21.562C15.1099 21.562 2.89862 31.9648 2.89862 43.2465C2.90618 46.0458 3.64931 48.7939 5.05357 51.2155C9.20287 47.7972 18.9043 45.393 30.1944 45.393" fill="#99D9E8"/>
<path d="M30.1944 45.4606C41.4972 45.4606 51.1775 47.8479 55.3141 51.2408C56.7228 48.8451 57.4694 46.1184 57.4775 43.3394C57.4775 32.1253 45.262 21.7901 30.1944 21.7901C15.1268 21.7901 2.93242 32.1295 2.93242 43.3394C2.94155 46.1218 3.68645 48.8518 5.09155 51.2535C9.23239 47.8732 18.9212 45.4732 30.1944 45.4732" fill="#9EDBE8"/>
<path d="M30.1944 45.5324C41.4803 45.5324 51.1521 47.9028 55.2761 51.2704C56.6835 48.8945 57.4301 46.1852 57.4394 43.4239C57.4394 32.2985 45.2408 22.0225 30.1986 22.0225C15.1564 22.0225 2.97467 32.2986 2.97467 43.4197C2.9847 46.1827 3.72836 48.8932 5.12958 51.2747C9.25775 47.8944 18.9423 45.5324 30.1986 45.5324" fill="#A3DEEB"/>
<path d="M30.1944 45.6085C41.4677 45.6085 51.1268 47.9662 55.2423 51.3042C56.6455 48.9482 57.3913 46.2592 57.4014 43.5169C57.4014 32.4633 45.2197 22.2591 30.1944 22.2591C15.1691 22.2591 3.00848 32.4676 3.00848 43.5127C3.02082 46.2562 3.76313 48.9469 5.15921 51.3085C9.28737 47.962 18.9592 45.6085 30.1944 45.6085Z" fill="#A8DEED"/>
<path d="M30.1944 45.6803C41.4465 45.6803 51.093 48.0211 55.2085 51.3338C56.6083 48.9968 57.3528 46.3255 57.3634 43.6014C57.3634 32.6155 45.1986 22.4746 30.1944 22.4746C15.1902 22.4746 3.04652 32.6155 3.04652 43.6014C3.05675 46.3276 3.79956 49.0014 5.19724 51.3423C9.32118 48.0211 18.9719 45.6845 30.1944 45.6803Z" fill="#B0E3ED"/>
<path d="M30.1944 45.7606C41.4338 45.7606 51.0634 48.0845 55.1746 51.3761C56.5699 49.0589 57.3131 46.4075 57.3253 43.7028C57.3253 32.8057 45.1775 22.7324 30.1944 22.7324C15.2113 22.7324 3.08029 32.8141 3.08029 43.6944C3.09369 46.4024 3.83507 49.0572 5.2268 51.3803C9.34229 48.0845 18.9845 45.7648 30.1944 45.7606Z" fill="#B5E3ED"/>
<path d="M30.1944 45.8239C41.417 45.8239 51.038 48.131 55.124 51.3972C56.5149 49.1028 57.2582 46.4746 57.2747 43.7915C57.2747 32.9704 45.1352 22.9605 30.1775 22.9605C15.2198 22.9605 3.10146 32.9788 3.10146 43.7831C3.11673 46.4649 3.85694 49.0931 5.24371 51.3887C9.35498 48.1183 18.9846 45.8155 30.1733 45.8113" fill="#BAE5F0"/>
<path d="M30.1944 45.8958C41.4042 45.8958 51.0085 48.1859 55.1239 51.431C56.5132 49.1518 57.2539 46.5368 57.2662 43.8676C57.2662 33.1309 45.1521 23.1845 30.2239 23.1845C15.2958 23.1845 3.1817 33.1352 3.1817 43.8634C3.18783 46.5321 3.918 49.1489 5.29437 51.4352C9.40141 48.1901 19.0141 45.9 30.1944 45.9" fill="#BFE8F2"/>
<path d="M30.1944 45.9676C41.3874 45.9676 50.9789 48.2451 55.0648 51.4606C56.4553 49.2017 57.1977 46.6044 57.2113 43.9521C57.2113 33.2915 45.1099 23.4169 30.1944 23.4169C15.2789 23.4169 3.19016 33.3042 3.19016 43.9521C3.20743 46.6039 3.94655 49.2013 5.32816 51.4648C9.43098 48.2409 19.0352 45.9718 30.1944 45.9718" fill="#C4E8F2"/>
<path d="M30.1944 46.0394C41.3746 46.0394 50.9493 48.2958 55.0352 51.4901C56.4211 49.2516 57.1623 46.6737 57.1775 44.0409C57.1775 33.4774 45.0929 23.6451 30.1944 23.6451C15.2958 23.6451 3.23239 33.4648 3.23239 44.0409C3.24252 46.6716 3.97319 49.2494 5.34506 51.4944C9.43943 48.2958 19.031 46.0394 30.1732 46.0394" fill="#C9EBF2"/>
<path d="M30.1944 46.1113C41.3536 46.1113 50.9239 48.3465 55.0014 51.5239C56.3721 49.3001 57.1031 46.7417 57.1141 44.1296C57.1141 33.6296 45.0465 23.8775 30.1733 23.8775C15.3 23.8775 3.27045 33.6338 3.27045 44.1254C3.28249 46.74 4.01337 49.301 5.38314 51.5282C9.47328 48.3507 19.0522 46.1155 30.1817 46.1113" fill="#CFEDF5"/>
<path d="M30.1944 46.1831C41.3409 46.1831 50.8986 48.4056 54.9676 51.5535C56.337 49.3513 57.0684 46.8118 57.0803 44.2183C57.0803 33.7901 45.0254 24.1056 30.1775 24.1056C15.3296 24.1056 3.31271 33.8029 3.31271 44.2141C3.32568 46.8114 4.05687 49.3546 5.42539 51.562C9.50708 48.4099 19.0733 46.1915 30.1902 46.1873" fill="#D4F0F5"/>
<path d="M30.1944 46.2592C41.3198 46.2592 50.8648 48.4648 54.9296 51.5873C56.2973 49.4041 57.0287 46.8828 57.0423 44.307C57.0423 33.9676 45.0085 24.3422 30.1775 24.3422C15.3465 24.3422 3.32538 33.9676 3.32538 44.3028C3.33664 46.8816 4.06838 49.4062 5.43807 51.5916C9.50709 48.4648 19.0648 46.2634 30.1648 46.2592" fill="#D9F2F5"/>
<path d="M30.1944 46.331C41.3113 46.331 50.8394 48.5197 54.8958 51.6211C56.2631 49.4599 56.9954 46.9576 57.0085 44.4C57.0085 34.1366 44.9873 24.5746 30.1775 24.5746C15.3676 24.5746 3.36765 34.1366 3.36765 44.3916C3.38172 46.953 4.11365 49.459 5.48033 51.6254C9.55357 48.524 19.0902 46.3352 30.1733 46.3352" fill="#DEF2F7"/>
<path d="M30.1944 46.4028C41.2944 46.4028 50.8099 48.5746 54.862 51.6507C56.2285 49.503 56.9607 47.013 56.9747 44.4676C56.9747 34.2887 44.9747 24.7901 30.186 24.7901C15.3972 24.7901 3.42256 34.3014 3.42256 44.493C3.43932 47.0379 4.17141 49.527 5.53522 51.6761C9.59578 48.5958 19.124 46.4282 30.1901 46.4239" fill="#E5F5FA"/>
<path d="M30.1944 46.4747C41.2775 46.4747 50.7803 48.6296 54.824 51.6803C56.1875 49.5579 56.9197 47.0916 56.9366 44.569C56.9366 34.4662 44.9493 25.0352 30.1859 25.0352C15.4225 25.0352 3.44791 34.4704 3.44791 44.5648C3.46698 47.0899 4.19936 49.5579 5.56057 51.6845C9.61691 48.6296 19.1324 46.4747 30.1859 46.4747" fill="#EBF7FA"/>
<path d="M30.1944 46.5465C41.2606 46.5465 50.7507 48.6887 54.7901 51.7099C56.1515 49.6065 56.8842 47.1587 56.9028 44.6535C56.9028 34.6268 44.9324 25.2634 30.1859 25.2634C15.4394 25.2634 3.49014 34.631 3.49014 44.6493C3.51127 47.1566 4.2439 49.6069 5.60281 51.7141C9.6507 48.6845 19.1577 46.5465 30.1944 46.5423" fill="#F0FAFC"/>
<path d="M30.1944 46.6056C41.2437 46.6056 50.7254 48.7183 54.7563 51.7268C56.1131 49.6449 56.8458 47.2183 56.869 44.7338C56.869 34.7872 44.9155 25.4872 30.1901 25.4872C15.4648 25.4872 3.53242 34.783 3.53242 44.7254C3.55604 47.2154 4.28891 49.647 5.64508 51.7352C9.68874 48.7268 19.1662 46.6056 30.2028 46.6056" fill="#F5FAFC"/>
<path d="M30.1944 46.6901C41.2268 46.6901 50.6958 48.8028 54.7268 51.7606C56.0818 49.6952 56.8154 47.2842 56.8394 44.8141C56.8394 34.9478 44.907 25.7112 30.2197 25.7112C15.5324 25.7112 3.60001 34.9521 3.60001 44.8099C3.62383 47.2813 4.35714 49.6939 5.71267 51.7606C9.75211 48.7775 19.2338 46.6901 30.2197 46.6901" fill="#FAFCFF"/>
<path d="M30.1944 46.762C41.2184 46.762 50.6662 48.8535 54.7014 51.807C56.0544 49.7628 56.7879 47.3708 56.8141 44.9197C56.8141 35.1253 44.8944 25.9563 30.1944 25.9563C15.4944 25.9563 3.6127 35.138 3.6127 44.9155C3.63438 47.37 4.3683 49.7658 5.72536 51.8113C9.75634 48.8535 19.2169 46.7662 30.2071 46.762" fill="white"/>
</g>
<mask id="mask2_1_310" style="mask-type:luminance" maskUnits="userSpaceOnUse" x="1" y="1" width="58" height="58">
<path d="M1.65213 29.8436C1.6513 35.462 3.31652 40.9545 6.43724 45.6266C9.55796 50.2986 13.994 53.94 19.1844 56.0911C24.3748 58.2418 30.0864 58.8051 35.597 57.7099C41.1076 56.6147 46.1696 53.91 50.1431 49.9377C54.1162 45.9655 56.8225 40.9042 57.9194 35.394C59.0163 29.8837 58.4548 24.1719 56.3054 18.9809C54.1563 13.7898 50.5158 9.35273 45.8447 6.23062C41.1737 3.10852 35.6818 1.44164 30.0634 1.44081C26.3328 1.4397 22.6385 2.17354 19.1915 3.60042C15.7446 5.02728 12.6125 7.11925 9.97412 9.7568C7.33577 12.3944 5.24286 15.5258 3.81497 18.9724C2.38707 22.419 1.65213 26.113 1.65213 29.8436Z" fill="white"/>
</mask>
<g mask="url(#mask2_1_310)">
<path d="M30.3127 43.5338C42.8113 43.5338 53.5014 47.0239 58.1028 51.9634C59.6683 48.3355 60.4737 44.4258 60.469 40.4746C60.469 24.1605 46.9479 10.969 30.3127 10.969C13.6775 10.969 0.177491 24.1732 0.177491 40.4831C0.176789 44.4313 0.983457 48.338 2.54792 51.9634C7.14089 47.0282 17.8437 43.5338 30.3127 43.5338Z" fill="#0869AB"/>
<path d="M30.3127 43.5676C42.7775 43.5676 53.4423 47.0282 58.0268 51.9296C59.5927 48.3304 60.3968 44.4461 60.3887 40.5212C60.3887 24.3423 46.9183 11.2141 30.3127 11.2141C13.707 11.2141 0.249325 24.3507 0.249325 40.5296C0.245841 44.4549 1.05282 48.3389 2.61974 51.938C7.19578 47.0282 17.869 43.5676 30.3127 43.5676Z" fill="#0D6BAD"/>
<path d="M30.3127 43.5972C42.7479 43.5972 53.3831 47.0324 57.9592 51.8831C59.5166 48.3203 60.3177 44.4731 60.3127 40.5845C60.3127 24.5281 46.8761 11.4718 30.3127 11.4718C13.7493 11.4718 0.312698 24.5408 0.312698 40.5887C0.313016 44.4765 1.11868 48.322 2.6789 51.8831C7.23807 47.0282 17.8902 43.5972 30.3 43.5972" fill="#0F6EAD"/>
<path d="M30.3127 43.6479C42.7183 43.6479 53.3239 47.0535 57.8873 51.8704C59.4393 48.3359 60.2379 44.5166 60.2324 40.6564C60.2324 24.7395 46.8338 11.7423 30.3127 11.7423C13.7916 11.7423 0.40567 24.7479 0.40567 40.6648C0.406623 44.5234 1.21102 48.3397 2.76764 51.8704C7.30568 47.0282 17.924 43.6479 30.3127 43.6479Z" fill="#1270B0"/>
<path d="M30.3127 43.6479C42.6845 43.6479 53.269 47.0282 57.8155 51.8028C59.3586 48.3017 60.153 44.5166 60.1479 40.6901C60.1479 24.9042 46.7789 11.9577 30.3 11.9577C13.8212 11.9577 0.46904 24.8958 0.46904 40.6901C0.468727 44.5162 1.26897 48.3 2.81833 51.7986C7.36479 47.0282 17.9493 43.6479 30.3127 43.6479Z" fill="#1473B2"/>
<path d="M30.3127 43.6944C42.6507 43.6944 53.2056 47.0409 57.7394 51.7817C59.2842 48.3106 60.0807 44.553 60.076 40.7535C60.076 25.0943 46.7451 12.2324 30.3085 12.2324C13.8719 12.2324 0.55777 25.107 0.55777 40.762C0.55905 44.5601 1.35799 48.3161 2.90285 51.7859C7.42398 47.0451 17.9916 43.6986 30.3085 43.6986" fill="#1775B2"/>
<path d="M30.3127 43.7239C42.6211 43.7239 53.1296 47.0451 57.6718 51.7521C59.212 48.311 60.0068 44.5825 60.0042 40.8126C60.0042 25.2886 46.7028 12.5027 30.3127 12.5027C13.9225 12.5027 0.638031 25.314 0.638031 40.8379C0.639768 44.6066 1.43595 48.333 2.97465 51.7732C7.49155 47.0704 18.0253 43.7451 30.3127 43.7451" fill="#1A78B5"/>
<path d="M30.2873 43.7578C42.562 43.7578 53.062 47.0493 57.5746 51.7099C59.1093 48.2987 59.8986 44.5994 59.8901 40.8591C59.8901 25.4662 46.6268 12.7309 30.2746 12.7309C13.9225 12.7309 0.69719 25.4788 0.69719 40.8718C0.696649 44.6096 1.49324 48.3042 3.03381 51.7099C7.53802 47.062 18.0465 43.7578 30.2958 43.7578" fill="#1C7AB5"/>
<path d="M30.2874 43.7873C42.5408 43.7873 53.0028 47.0493 57.4986 51.6676C59.0379 48.292 59.8318 44.6244 59.8268 40.9141C59.8268 25.6563 46.5972 12.9803 30.2874 12.9803C13.9775 12.9803 0.764806 25.6563 0.764806 40.9225C0.762449 44.6324 1.55638 48.2996 3.09297 51.6761C7.58454 47.0535 18.0634 43.7958 30.2831 43.7958" fill="#1C7DB8"/>
<path d="M30.2831 43.8211C42.4944 43.8211 52.9394 47.0577 57.4268 51.638C58.958 48.2928 59.7494 44.6565 59.7465 40.9774C59.7465 25.8464 46.5465 13.2337 30.2831 13.2337C14.0197 13.2337 0.836639 25.8548 0.836639 40.9774C0.836927 44.6565 1.62954 48.2924 3.16058 51.638C7.64366 47.0577 18.1014 43.8211 30.2831 43.8211Z" fill="#1F80B8"/>
<path d="M30.2789 43.8507C42.4606 43.8507 52.8803 47.0577 57.3549 51.5958C58.8816 48.2835 59.6704 44.6793 59.6662 41.0324C59.6662 26.0324 46.5085 13.4873 30.2789 13.4873C14.0493 13.4873 0.908463 26.0408 0.908463 41.0366C0.910115 44.6839 1.70148 48.2877 3.22818 51.6C7.6986 47.062 18.1268 43.8549 30.2704 43.8549" fill="#2182BA"/>
<path d="M30.2704 43.8845C42.4141 43.8845 52.8084 47.062 57.2704 51.562C58.7941 48.2801 59.5829 44.7055 59.5817 41.0873C59.5817 26.2183 46.4535 13.7366 30.2747 13.7366C14.0958 13.7366 0.984528 26.2268 0.984528 41.1127C0.984067 44.7296 1.77284 48.3025 3.2958 51.5831C7.74932 47.0831 18.1521 43.9056 30.2704 43.9056" fill="#2485BA"/>
<path d="M30.2704 43.9141C42.3845 43.9141 52.7493 47.062 57.1986 51.5197C58.7206 48.2692 59.5069 44.7228 59.5014 41.1338C59.5014 26.4 46.4028 13.9859 30.2746 13.9859C14.1465 13.9859 1.06056 26.4084 1.06056 41.138C1.06391 44.7258 1.8528 48.2692 3.37183 51.5197C7.81267 47.0578 18.1901 43.9141 30.2789 43.9141" fill="#298ABD"/>
<path d="M30.2662 43.9479C42.3465 43.9479 52.6817 47.0662 57.1225 51.4901C58.6373 48.2704 59.4207 44.7554 59.4169 41.1972C59.4169 26.5901 46.3648 14.2437 30.262 14.2437C14.1592 14.2437 1.10707 26.6028 1.10707 41.1972C1.10788 44.7554 1.89269 48.2696 3.40566 51.4901C7.8423 47.0662 18.1944 43.9479 30.2408 43.9479" fill="#2B8CBF"/>
<path d="M30.262 43.9775C42.3127 43.9775 52.6225 47.0704 57.0507 51.4521C58.5596 48.2637 59.3404 44.7794 59.3366 41.2521C59.3366 26.7803 46.3183 14.4972 30.262 14.4972C14.2057 14.4972 1.20004 26.7887 1.20004 41.2521C1.20223 44.7799 1.98578 48.2632 3.4944 51.4521C7.91836 47.0704 18.2409 43.9775 30.2578 43.9775" fill="#2E8FBF"/>
<path d="M30.2577 44.0113C42.2746 44.0113 52.5592 47.0747 56.9746 51.4183C58.4818 48.2607 59.2627 44.8056 59.2606 41.307C59.2606 26.9662 46.2761 14.7507 30.2577 14.7507C14.2394 14.7507 1.27606 26.9788 1.27606 41.3155C1.27675 44.8111 2.05771 48.2628 3.56198 51.4183C7.96901 47.0747 18.2662 44.0113 30.2577 44.0113Z" fill="#2E91C2"/>
<path d="M30.2535 44.0408C42.2408 44.0408 52.4958 47.0746 56.8986 51.3761C58.4011 48.2518 59.1799 44.8289 59.1761 41.362C59.1761 27.1563 46.2211 15 30.2535 15C14.2859 15 1.34792 27.169 1.34792 41.362C1.3494 44.8293 2.13064 48.2518 3.63382 51.3761C8.0324 47.0746 18.3 44.0408 30.2535 44.0408Z" fill="#3394C2"/>
<path d="M30.2493 44.0704C42.2029 44.0704 52.4324 47.0789 56.8225 51.338C58.3246 48.2451 59.1034 44.8508 59.1 41.4126C59.1 27.3379 46.1831 15.2492 30.2535 15.2492C14.3239 15.2492 1.42397 27.3422 1.42397 41.4168C1.42244 44.8555 2.1981 48.2497 3.69298 51.3465C8.08314 47.0831 18.3169 44.0789 30.2451 44.0789" fill="#3396C2"/>
<path d="M30.2451 44.1085C42.1648 44.1085 52.369 47.0662 56.7422 51.2916C58.2406 48.2324 59.0168 44.8699 59.0113 41.4633C59.0113 27.5197 46.1324 15.4943 30.2409 15.4943C14.3493 15.4943 1.50847 27.5197 1.50847 41.4633C1.5111 44.8699 2.28998 48.2311 3.78594 51.2916C8.15919 47.0662 18.3676 44.1085 30.262 44.1085" fill="#3699C4"/>
<path d="M30.2408 44.138C42.1352 44.138 52.3099 47.0958 56.6704 51.2746C58.1649 48.2459 58.9399 44.9125 58.9352 41.5352C58.9352 27.7183 46.0901 15.7606 30.2408 15.7606C14.3916 15.7606 1.58031 27.7226 1.58031 41.5352C1.58267 44.9041 2.3544 48.2282 3.83665 51.2535C8.19719 47.0662 18.3845 44.1169 30.2408 44.1169" fill="#389CC7"/>
<path d="M30.2367 44.1718C42.0972 44.1718 52.2423 47.0958 56.5901 51.2366C58.08 48.2392 58.8554 44.9375 58.8549 41.5901C58.8549 27.9042 46.0394 16.014 30.2367 16.014C14.4338 16.014 1.63947 27.9126 1.63947 41.5901C1.6396 44.9425 2.4147 48.2497 3.90425 51.2535C8.25638 47.1127 18.4099 44.1887 30.2408 44.1887" fill="#3DA1C9"/>
<path d="M30.2367 44.2056C42.0676 44.2056 52.2084 47.0958 56.5183 51.1986C58.0061 48.2341 58.7785 44.962 58.7746 41.6451C58.7746 28.0944 45.9972 16.2634 30.2367 16.2634C14.4761 16.2634 1.71552 28.0944 1.71552 41.6451C1.71781 44.9607 2.48868 48.2311 3.96762 51.1986C8.31126 47.0958 18.4395 44.2056 30.2367 44.2056Z" fill="#40A3C9"/>
<path d="M30.2282 44.2352C42.0211 44.2352 52.1197 47.0958 56.4253 51.1648C57.9051 48.2294 58.6749 44.9873 58.6732 41.7001C58.6732 28.2803 45.9338 16.5127 30.2113 16.5127C14.4888 16.5127 1.77045 28.2803 1.77045 41.7001C1.77142 44.9869 2.54121 48.2282 4.01833 51.1648C8.34929 47.1 18.4521 44.2352 30.2155 44.2352" fill="#42A6CC"/>
<path d="M30.2282 44.2648C41.9915 44.2648 52.0563 47.1 56.3704 51.1183C57.8476 48.2168 58.6149 45.0063 58.6099 41.7507C58.6099 28.4619 45.9042 16.7577 30.2282 16.7577C14.5521 16.7577 1.86762 28.4619 1.86762 41.7464C1.86665 45.003 2.63391 48.2138 4.10706 51.1183C8.42116 47.0958 18.4986 44.2648 30.2282 44.2648Z" fill="#45A8CC"/>
<path d="M30.2198 44.2986C41.9536 44.2986 51.9887 47.1 56.2944 51.0887C57.7694 48.2125 58.5359 45.0254 58.5296 41.793C58.5296 28.6352 45.8535 16.9986 30.2198 16.9986C14.586 16.9986 1.93102 28.6394 1.93102 41.793C1.92858 45.0249 2.69473 48.2113 4.16624 51.0887C8.47187 47.1 18.5324 44.2986 30.2155 44.2986" fill="#47ABCF"/>
<path d="M30.2198 44.3324C41.9198 44.3324 51.9338 47.1085 56.2183 51.0549C57.6892 48.2163 58.4556 45.0659 58.4535 41.869C58.4535 28.8422 45.8155 17.2732 30.2198 17.2732C14.624 17.2732 2.00284 28.8591 2.00284 41.8648C2.00633 45.0608 2.77263 48.21 4.23807 51.0507C8.52258 47.1085 18.5451 44.3282 30.2155 44.3282" fill="#4AADD1"/>
<path d="M30.2155 44.362C41.8817 44.362 51.8662 47.1127 56.1423 51.0169C57.6101 48.2121 58.3753 45.0934 58.3732 41.9281C58.3732 29.0324 45.7648 17.5225 30.2155 17.5225C14.6662 17.5225 2.07889 29.0324 2.07889 41.9197C2.08261 45.087 2.84778 48.207 4.30986 51.0169C8.58591 47.1127 18.5831 44.362 30.2155 44.362Z" fill="#4AB0D1"/>
<path d="M30.2113 44.3958C41.8437 44.3958 51.807 47.1127 56.0704 50.9831C57.5328 48.1999 58.2942 45.1018 58.2887 41.9577C58.2887 29.1972 45.7183 17.7549 30.2113 17.7549C14.7043 17.7549 2.15495 29.1972 2.15495 41.9535C2.15769 45.0917 2.92026 48.1825 4.37747 50.962C8.64508 47.0915 18.6085 44.3746 30.2113 44.3746" fill="#4FB2D4"/>
<path d="M30.2071 44.4254C41.8057 44.4254 51.7563 47.1169 55.9817 50.9451C57.4416 48.202 58.2034 45.1411 58.2 42.0338C58.2 29.4 45.6634 18.0253 30.1986 18.0253C14.7338 18.0253 2.21834 29.4 2.21834 42.0295C2.22103 45.1373 2.98098 48.1973 4.43244 50.9451C8.69159 47.1169 18.6296 44.4254 30.2071 44.4254Z" fill="#54BAD6"/>
<path d="M30.2028 44.4592C41.7718 44.4592 51.6803 47.1211 55.9099 50.9071C57.3655 48.1973 58.1265 45.169 58.1239 42.093C58.1239 29.5944 45.6253 18.2831 30.2028 18.2831C14.7803 18.2831 2.31551 29.5944 2.31551 42.093C2.31715 45.1694 3.07611 48.1978 4.52539 50.9113C8.75074 47.1085 18.6845 44.4634 30.2198 44.4634" fill="#54BDD6"/>
<path d="M30.1986 44.493C41.7338 44.493 51.6169 47.1254 55.8423 50.8732C57.2924 48.1935 58.0521 45.1948 58.0521 42.1479C58.0521 29.776 45.5873 18.5324 30.2028 18.5324C14.8183 18.5324 2.37468 29.776 2.37468 42.1394C2.37795 45.188 3.13569 48.1885 4.58033 50.8732C8.80568 47.1254 18.6972 44.493 30.2028 44.493" fill="#59BFD9"/>
<path d="M30.1944 44.5225C41.7 44.5225 51.5493 47.1254 55.762 50.8352C57.2087 48.188 57.9655 45.2193 57.9634 42.2028C57.9634 29.9493 45.5324 18.7859 30.1901 18.7859C14.8479 18.7859 2.42537 29.9662 2.42537 42.1944C2.42659 45.2125 3.18186 48.183 4.62257 50.8352C8.84793 47.1254 18.7014 44.5225 30.1733 44.5225" fill="#59C2D9"/>
<path d="M30.1944 44.5944C41.6789 44.5944 51.5239 47.1845 55.7324 50.8648C57.1749 48.2362 57.9309 45.2856 57.9296 42.2873C57.9296 30.131 45.5155 19.0141 30.1944 19.0141C14.8733 19.0141 2.48454 30.1268 2.48454 42.2831C2.48954 45.2823 3.24486 48.2324 4.6817 50.8648C8.90705 47.1845 18.7437 44.5944 30.1986 44.5944" fill="#5EC2DB"/>
<path d="M30.1944 44.6662C41.6662 44.6662 51.4944 47.2394 55.6901 50.8944C57.1339 48.2861 57.8899 45.3532 57.8873 42.3718C57.8873 30.2916 45.4944 19.2423 30.1944 19.2423C14.8944 19.2423 2.51834 30.2958 2.51834 42.3676C2.52421 45.3486 3.27823 48.2806 4.71131 50.8944C8.93666 47.2394 18.7522 44.6662 30.1944 44.6662Z" fill="#63C4DB"/>
<path d="M30.1944 44.738C41.6536 44.738 51.4648 47.2944 55.6606 50.9282C57.0963 48.3427 57.8506 45.4348 57.8535 42.4775C57.8535 30.4774 45.4732 19.4915 30.1944 19.4915C14.9155 19.4915 2.56059 30.4774 2.56059 42.4732C2.5674 45.4293 3.32023 48.3359 4.74934 50.924C8.95357 47.2944 18.7733 44.7338 30.1944 44.7338" fill="#69C7DE"/>
<path d="M30.1944 44.8099C41.6366 44.8099 51.4394 47.3451 55.6225 50.962C57.057 48.3917 57.8104 45.4969 57.8113 42.5535C57.8113 30.6295 45.4479 19.7112 30.1901 19.7112C14.9324 19.7112 2.59438 30.6338 2.59438 42.5282C2.59699 45.4749 3.34871 48.3727 4.77888 50.9493C8.97888 47.3366 18.7817 44.7972 30.1901 44.7972" fill="#6EC9DE"/>
<path d="M30.1944 44.8817C41.6029 44.8817 51.4099 47.4169 55.5887 50.9916C57.0211 48.4403 57.7749 45.5641 57.7775 42.638C57.7775 30.807 45.431 19.9394 30.1944 19.9394C14.9578 19.9394 2.63664 30.7986 2.63664 42.6338C2.64354 45.5611 3.3953 48.439 4.82117 50.9958C9.01272 47.4042 18.8029 44.8859 30.1986 44.8859" fill="#73CCE0"/>
<path d="M30.1944 44.9578C41.6029 44.9578 51.3761 47.4634 55.5465 51.0254C56.9751 48.4927 57.7272 45.6347 57.731 42.7268C57.731 30.9634 45.3972 20.1718 30.186 20.1718C14.9747 20.1718 2.67046 30.9718 2.67046 42.7225C2.67658 45.6313 3.42873 48.4902 4.85498 51.0254C9.03807 47.4634 18.7986 44.9578 30.2071 44.9578" fill="#7ACFE0"/>
<path d="M30.1944 45.0296C41.6029 45.0296 51.3507 47.5183 55.5211 51.0592C56.9472 48.5472 57.6985 45.7082 57.7014 42.8197C57.7014 31.1365 45.3887 20.4253 30.1944 20.4253C15 20.4253 2.72961 31.1534 2.72961 42.8197C2.73744 45.7086 3.4867 48.5468 4.90568 51.0634C9.08455 47.5225 18.8493 45.0338 30.2155 45.0338" fill="#80CFE3"/>
<path d="M30.1944 45.1014C41.5733 45.1014 51.3211 47.5732 55.4831 51.0887C56.9062 48.5966 57.6575 45.7779 57.6634 42.9084C57.6634 31.3014 45.3634 20.6408 30.1986 20.6408C15.0338 20.6408 2.73384 31.3013 2.73384 42.8958C2.74124 45.7686 3.49082 48.5907 4.9099 51.0887C9.08032 47.5732 18.8536 45.1014 30.186 45.1014" fill="#85D1E3"/>
<path d="M30.1944 45.1732C41.5606 45.1732 51.2915 47.6282 55.4493 51.1183C56.8699 48.6439 57.6203 45.8417 57.6254 42.9887C57.6254 31.4619 45.3465 20.8648 30.1944 20.8648C15.0423 20.8648 2.78455 31.4619 2.78455 42.9803C2.79142 45.8358 3.54135 48.6406 4.96061 51.1183C9.12258 47.6282 18.8662 45.1732 30.1986 45.1732" fill="#8AD4E5"/>
<path d="M30.1944 45.2451C41.5395 45.2451 51.2662 47.6831 55.4155 51.1606C56.8339 48.7069 57.5844 45.9241 57.5916 43.0901C57.5916 31.6437 45.338 21.1183 30.1944 21.1183C15.0507 21.1183 2.81833 31.6521 2.81833 43.0901C2.82722 45.9241 3.57429 48.7073 4.98592 51.1648C9.14789 47.6958 18.8789 45.2493 30.1944 45.2493" fill="#8FD6E5"/>
<path d="M30.1944 45.3169C41.5268 45.3169 51.2366 47.738 55.3817 51.1775C56.7993 48.7394 57.5472 45.9697 57.5493 43.1493C57.5493 31.7789 45.2958 21.3169 30.1944 21.3169C15.093 21.3169 2.8479 31.8169 2.8479 43.162C2.85558 45.9811 3.60145 48.7487 5.01126 51.1901C9.16478 47.7465 18.8789 45.3254 30.1817 45.3254" fill="#94D6E8"/>
<path d="M30.1944 45.3887C41.5099 45.3887 51.2071 47.793 55.3479 51.207C56.7592 48.7927 57.5054 46.0475 57.5113 43.2507C57.5113 31.9606 45.2789 21.562 30.1944 21.562C15.1099 21.562 2.89862 31.9648 2.89862 43.2465C2.90618 46.0458 3.64931 48.7939 5.05357 51.2155C9.20287 47.7972 18.9043 45.393 30.1944 45.393" fill="#99D9E8"/>
<path d="M30.1944 45.4606C41.4972 45.4606 51.1775 47.8479 55.3141 51.2408C56.7228 48.8451 57.4694 46.1184 57.4775 43.3394C57.4775 32.1253 45.262 21.7901 30.1944 21.7901C15.1268 21.7901 2.93242 32.1295 2.93242 43.3394C2.94155 46.1218 3.68645 48.8518 5.09155 51.2535C9.23239 47.8732 18.9212 45.4732 30.1944 45.4732" fill="#9EDBE8"/>
<path d="M30.1944 45.5324C41.4803 45.5324 51.1521 47.9028 55.2761 51.2704C56.6835 48.8945 57.4301 46.1852 57.4394 43.4239C57.4394 32.2985 45.2408 22.0225 30.1986 22.0225C15.1564 22.0225 2.97467 32.2986 2.97467 43.4197C2.9847 46.1827 3.72836 48.8932 5.12958 51.2747C9.25775 47.8944 18.9423 45.5324 30.1986 45.5324" fill="#A3DEEB"/>
<path d="M30.1944 45.6085C41.4677 45.6085 51.1268 47.9662 55.2423 51.3042C56.6455 48.9482 57.3913 46.2592 57.4014 43.5169C57.4014 32.4633 45.2197 22.2591 30.1944 22.2591C15.1691 22.2591 3.00848 32.4676 3.00848 43.5127C3.02082 46.2562 3.76313 48.9469 5.15921 51.3085C9.28737 47.962 18.9592 45.6085 30.1944 45.6085Z" fill="#A8DEED"/>
<path d="M30.1944 45.6803C41.4465 45.6803 51.093 48.0211 55.2085 51.3338C56.6083 48.9968 57.3528 46.3255 57.3634 43.6014C57.3634 32.6155 45.1986 22.4746 30.1944 22.4746C15.1902 22.4746 3.04652 32.6155 3.04652 43.6014C3.05675 46.3276 3.79956 49.0014 5.19724 51.3423C9.32118 48.0211 18.9719 45.6845 30.1944 45.6803Z" fill="#B0E3ED"/>
<path d="M30.1944 45.7606C41.4338 45.7606 51.0634 48.0845 55.1746 51.3761C56.5699 49.0589 57.3131 46.4075 57.3253 43.7028C57.3253 32.8057 45.1775 22.7324 30.1944 22.7324C15.2113 22.7324 3.08029 32.8141 3.08029 43.6944C3.09369 46.4024 3.83507 49.0572 5.2268 51.3803C9.34229 48.0845 18.9845 45.7648 30.1944 45.7606Z" fill="#B5E3ED"/>
<path d="M30.1944 45.8239C41.417 45.8239 51.038 48.131 55.124 51.3972C56.5149 49.1028 57.2582 46.4746 57.2747 43.7915C57.2747 32.9704 45.1352 22.9605 30.1775 22.9605C15.2198 22.9605 3.10146 32.9788 3.10146 43.7831C3.11673 46.4649 3.85694 49.0931 5.24371 51.3887C9.35498 48.1183 18.9846 45.8155 30.1733 45.8113" fill="#BAE5F0"/>
<path d="M30.1944 45.8958C41.4042 45.8958 51.0085 48.1859 55.1239 51.431C56.5132 49.1518 57.2539 46.5368 57.2662 43.8676C57.2662 33.1309 45.1521 23.1845 30.2239 23.1845C15.2958 23.1845 3.1817 33.1352 3.1817 43.8634C3.18783 46.5321 3.918 49.1489 5.29437 51.4352C9.40141 48.1901 19.0141 45.9 30.1944 45.9" fill="#BFE8F2"/>
<path d="M30.1944 45.9676C41.3874 45.9676 50.9789 48.2451 55.0648 51.4606C56.4553 49.2017 57.1977 46.6044 57.2113 43.9521C57.2113 33.2915 45.1099 23.4169 30.1944 23.4169C15.2789 23.4169 3.19016 33.3042 3.19016 43.9521C3.20743 46.6039 3.94655 49.2013 5.32816 51.4648C9.43098 48.2409 19.0352 45.9718 30.1944 45.9718" fill="#C4E8F2"/>
<path d="M30.1944 46.0394C41.3746 46.0394 50.9493 48.2958 55.0352 51.4901C56.4211 49.2516 57.1623 46.6737 57.1775 44.0409C57.1775 33.4774 45.0929 23.6451 30.1944 23.6451C15.2958 23.6451 3.23239 33.4648 3.23239 44.0409C3.24252 46.6716 3.97319 49.2494 5.34506 51.4944C9.43943 48.2958 19.031 46.0394 30.1732 46.0394" fill="#C9EBF2"/>
<path d="M30.1944 46.1113C41.3536 46.1113 50.9239 48.3465 55.0014 51.5239C56.3721 49.3001 57.1031 46.7417 57.1141 44.1296C57.1141 33.6296 45.0465 23.8775 30.1733 23.8775C15.3 23.8775 3.27045 33.6338 3.27045 44.1254C3.28249 46.74 4.01337 49.301 5.38314 51.5282C9.47328 48.3507 19.0522 46.1155 30.1817 46.1113" fill="#CFEDF5"/>
<path d="M30.1944 46.1831C41.3409 46.1831 50.8986 48.4056 54.9676 51.5535C56.337 49.3513 57.0684 46.8118 57.0803 44.2183C57.0803 33.7901 45.0254 24.1056 30.1775 24.1056C15.3296 24.1056 3.31271 33.8029 3.31271 44.2141C3.32568 46.8114 4.05687 49.3546 5.42539 51.562C9.50708 48.4099 19.0733 46.1915 30.1902 46.1873" fill="#D4F0F5"/>
<path d="M30.1944 46.2592C41.3198 46.2592 50.8648 48.4648 54.9296 51.5873C56.2973 49.4041 57.0287 46.8828 57.0423 44.307C57.0423 33.9676 45.0085 24.3422 30.1775 24.3422C15.3465 24.3422 3.32538 33.9676 3.32538 44.3028C3.33664 46.8816 4.06838 49.4062 5.43807 51.5916C9.50709 48.4648 19.0648 46.2634 30.1648 46.2592" fill="#D9F2F5"/>
<path d="M30.1944 46.331C41.3113 46.331 50.8394 48.5197 54.8958 51.6211C56.2631 49.4599 56.9954 46.9576 57.0085 44.4C57.0085 34.1366 44.9873 24.5746 30.1775 24.5746C15.3676 24.5746 3.36765 34.1366 3.36765 44.3916C3.38172 46.953 4.11365 49.459 5.48033 51.6254C9.55357 48.524 19.0902 46.3352 30.1733 46.3352" fill="#DEF2F7"/>
<path d="M30.1944 46.4028C41.2944 46.4028 50.8099 48.5746 54.862 51.6507C56.2285 49.503 56.9607 47.013 56.9747 44.4676C56.9747 34.2887 44.9747 24.7901 30.186 24.7901C15.3972 24.7901 3.42256 34.3014 3.42256 44.493C3.43932 47.0379 4.17141 49.527 5.53522 51.6761C9.59578 48.5958 19.124 46.4282 30.1901 46.4239" fill="#E5F5FA"/>
<path d="M30.1944 46.4747C41.2775 46.4747 50.7803 48.6296 54.824 51.6803C56.1875 49.5579 56.9197 47.0916 56.9366 44.569C56.9366 34.4662 44.9493 25.0352 30.1859 25.0352C15.4225 25.0352 3.44791 34.4704 3.44791 44.5648C3.46698 47.0899 4.19936 49.5579 5.56057 51.6845C9.61691 48.6296 19.1324 46.4747 30.1859 46.4747" fill="#EBF7FA"/>
<path d="M30.1944 46.5465C41.2606 46.5465 50.7507 48.6887 54.7901 51.7099C56.1515 49.6065 56.8842 47.1587 56.9028 44.6535C56.9028 34.6268 44.9324 25.2634 30.1859 25.2634C15.4394 25.2634 3.49014 34.631 3.49014 44.6493C3.51127 47.1566 4.2439 49.6069 5.60281 51.7141C9.6507 48.6845 19.1577 46.5465 30.1944 46.5423" fill="#F0FAFC"/>
<path d="M30.1944 46.6056C41.2437 46.6056 50.7254 48.7183 54.7563 51.7268C56.1131 49.6449 56.8458 47.2183 56.869 44.7338C56.869 34.7872 44.9155 25.4872 30.1901 25.4872C15.4648 25.4872 3.53242 34.783 3.53242 44.7254C3.55604 47.2154 4.28891 49.647 5.64508 51.7352C9.68874 48.7268 19.1662 46.6056 30.2028 46.6056" fill="#F5FAFC"/>
<path d="M30.1944 46.6901C41.2268 46.6901 50.6958 48.8028 54.7268 51.7606C56.0818 49.6952 56.8154 47.2842 56.8394 44.8141C56.8394 34.9478 44.907 25.7112 30.2197 25.7112C15.5324 25.7112 3.60001 34.9521 3.60001 44.8099C3.62383 47.2813 4.35714 49.6939 5.71267 51.7606C9.75211 48.7775 19.2338 46.6901 30.2197 46.6901" fill="#FAFCFF"/>
<path d="M30.1944 46.762C41.2184 46.762 50.6662 48.8535 54.7014 51.807C56.0544 49.7628 56.7879 47.3708 56.8141 44.9197C56.8141 35.1253 44.8944 25.9563 30.1944 25.9563C15.4944 25.9563 3.6127 35.138 3.6127 44.9155C3.63438 47.37 4.3683 49.7658 5.72536 51.8113C9.75634 48.8535 19.2169 46.7662 30.2071 46.762" fill="white"/>
</g>
<path d="M30.0634 37.0014C20.4211 37.0014 11.4718 38.6409 4.10706 41.4127C6.34669 46.4239 9.98924 50.6801 14.5949 53.6662C19.2005 56.6527 24.5722 58.2418 30.0613 58.2418C35.5504 58.2418 40.9221 56.6527 45.5277 53.6662C50.1334 50.6801 53.7761 46.4239 56.0155 41.4127C48.6338 38.6409 39.6803 37.0014 30.0634 37.0014Z" fill="#0869AB"/>
</g>
</g>
<g clip-path="url(#clip1_1_310)">
<path fill-rule="evenodd" clip-rule="evenodd" d="M401.17 10.4252H388.735L373.382 25.2706L376.3 10.4252H365.515L357.395 51.2817H368.307L371.606 34.2794L381.122 51.2817H394.318L381.376 29.3309L401.17 10.4252Z" fill="#2B6BB8"/>
<path fill-rule="evenodd" clip-rule="evenodd" d="M271.621 22.0989C271.114 24.6365 270.225 25.5247 267.307 25.6516H265.404H265.023H259.694L261.09 18.4192H266.799H267.307C271.875 18.4192 272.129 19.3074 271.621 22.0989ZM270.225 38.5938C269.718 41.2583 268.449 42.908 263.627 43.1615H263.5C263.12 43.2884 262.739 43.2884 262.359 43.2884H261.851V43.1615H256.395L258.171 33.7722H263.627H264.262C271.24 33.7722 270.606 36.9443 270.225 38.5938ZM281.899 20.9569C283.168 13.9783 279.234 10.0449 271.367 10.0449H252.335L244.468 51.6628L263.247 51.5359C273.017 51.5359 278.6 47.3488 280.249 39.1013C281.137 34.5335 279.995 30.9807 276.95 29.0775C279.615 27.1742 281.264 24.3828 281.899 20.9569Z" fill="#2B6BB8"/>
<path fill-rule="evenodd" clip-rule="evenodd" d="M108.067 9.66375L99.1854 33.7717L96.2671 9.66375H88.0196L76.0925 33.8986L76.2194 9.79063H66.0686V52.0431H75.9656L88.5271 28.0619L92.3337 51.9162H102.231L118.218 9.66375H108.067Z" fill="#2B6BB8"/>
<path fill-rule="evenodd" clip-rule="evenodd" d="M128.496 43.5422C126.973 43.6691 122.532 43.6691 124.943 30.8537C127.354 18.1654 131.922 18.1654 133.317 18.1654C134.84 18.1654 139.281 18.1654 136.87 30.8537C134.459 43.5422 130.018 43.5422 128.496 43.5422ZM135.094 9.28345C127.227 9.28345 117.203 13.09 113.777 30.9806C110.351 48.7444 118.979 52.4242 126.846 52.4242C134.586 52.2973 144.61 48.6175 148.163 30.8537C151.589 12.9631 142.834 9.28345 135.094 9.28345Z" fill="#2B6BB8"/>
<path fill-rule="evenodd" clip-rule="evenodd" d="M165.673 43.5422C164.277 43.6691 159.709 43.6691 162.12 30.8537C164.658 18.1654 169.099 18.1654 170.621 18.1654C172.017 18.1654 176.585 18.1654 174.174 30.8537C171.636 43.5422 167.195 43.5422 165.673 43.5422ZM172.271 9.28345C164.404 9.28345 154.38 13.09 150.954 30.9806C147.655 48.7444 156.156 52.4242 164.023 52.4242C171.89 52.2973 182.041 48.6175 185.467 30.8537C188.893 12.9631 180.137 9.28345 172.271 9.28345Z" fill="#2B6BB8"/>
<path fill-rule="evenodd" clip-rule="evenodd" d="M201.454 17.4042C204.119 17.4042 210.463 15.374 209.448 22.8602C208.306 30.4732 199.043 29.585 199.043 29.585L201.454 17.4042ZM210.59 35.041C215.665 32.1227 219.218 26.5398 219.218 19.3074C219.218 8.64915 206.402 9.79111 206.402 9.79111H193.207L184.451 51.5359H194.222L197.14 37.1981H200.946C202.088 37.325 203.738 38.0863 203.992 40.3702C204.372 44.1767 204.88 51.6628 204.88 51.6628H214.777C214.777 51.6628 213.889 41.3852 213.635 39.8626C213.381 38.34 213.001 36.183 210.59 35.041Z" fill="#2B6BB8"/>
<path fill-rule="evenodd" clip-rule="evenodd" d="M219.091 51.6624H230.13L237.997 10.4252H227.085L219.091 51.6624Z" fill="#2B6BB8"/>
<path fill-rule="evenodd" clip-rule="evenodd" d="M297.379 35.6756L303.469 23.4948L305.119 35.6756H297.379ZM300.931 10.1719L277.585 51.4093H288.624L292.937 43.6694H305.753L306.641 51.4093H316.919L310.701 10.1719H300.931Z" fill="#2B6BB8"/>
<path fill-rule="evenodd" clip-rule="evenodd" d="M350.543 10.1719L346.356 33.6455L337.728 10.1719H327.323L319.329 51.4093L328.973 51.2824L333.667 26.1593L342.296 51.4093H352.065L360.059 10.1719H350.543Z" fill="#2B6BB8"/>
</g>
<defs>
<clipPath id="clip0_1_310">
<rect width="60" height="60" fill="white"/>
</clipPath>
<clipPath id="clip1_1_310">
<rect width="335.714" height="47" fill="white" transform="translate(66 7)"/>
</clipPath>
</defs>
</svg>
